<svg id="_16" data-name="16" xmlns="http://www.w3.org/2000/svg" width="16" height="16" viewBox="0 0 16 16"><defs><style>.cls-1{fill:none;}.cls-2{fill:#ad297e;}.cls-3{fill:#66625d;}</style></defs><title>spoofax</title><rect class="cls-1" width="16" height="16"/><path class="cls-2" d="M6.52,11.59a3.28,3.28,0,0,0,.49.15,3,3,0,0,0,.69.08,2.47,2.47,0,0,0,1.37-.39,1.27,1.27,0,0,0,.59-1.1,1.15,1.15,0,0,0-.25-.75,2.1,2.1,0,0,0-.64-.49c-.25-.12-.6-.28-1-.45A11,11,0,0,1,6.32,8a2.62,2.62,0,0,1-.92-.84A2.42,2.42,0,0,1,5,5.76a2.48,2.48,0,0,1,.87-2.07A3.41,3.41,0,0,1,8.07,3a5.18,5.18,0,0,1,1.14.13c.4.08.75.17,1,.25l.54.18-.06,2.36H9.88L9.45,4.43,9.2,4.35l-.5-.12a4.32,4.32,0,0,0-.62-.05,1.82,1.82,0,0,0-1.26.4,1.22,1.22,0,0,0-.45,1,1.12,1.12,0,0,0,.26.75,2.12,2.12,0,0,0,.64.5c.26.13.62.28,1.08.46a11.21,11.21,0,0,1,1.37.6,2.6,2.6,0,0,1,.91.81A2.16,2.16,0,0,1,11,10a3,3,0,0,1-.45,1.69,2.73,2.73,0,0,1-1.21,1A4.25,4.25,0,0,1,7.65,13a5.86,5.86,0,0,1-1.19-.12,7.7,7.7,0,0,1-1-.26c-.26-.08-.42-.14-.49-.17V10H6l.26,1.45Z"/><path class="cls-3" d="M13.26,2.46A2.05,2.05,0,0,1,13.77,4V6.09A1.38,1.38,0,0,0,14,7a1.18,1.18,0,0,0,1,.33v.84a1.22,1.22,0,0,0-1,.32,1.43,1.43,0,0,0-.27.93V12a2.07,2.07,0,0,1-.51,1.58,2.46,2.46,0,0,1-1.68.46H11v-.78a3.41,3.41,0,0,0,1-.11.85.85,0,0,0,.49-.39,1.72,1.72,0,0,0,.14-.76V9.43a1.77,1.77,0,0,1,.3-1,1.81,1.81,0,0,1,.89-.63,1.81,1.81,0,0,1-.89-.63,1.75,1.75,0,0,1-.3-1V4a1.72,1.72,0,0,0-.14-.76A.85.85,0,0,0,12,2.89a3.41,3.41,0,0,0-1-.11V2h.58A2.46,2.46,0,0,1,13.26,2.46Z"/><path class="cls-3" d="M4,2.89a.85.85,0,0,0-.49.39A1.72,1.72,0,0,0,3.41,4V6.09a1.77,1.77,0,0,1-.3,1,1.81,1.81,0,0,1-.89.63,1.81,1.81,0,0,1,.89.63,1.75,1.75,0,0,1,.3,1V12a1.72,1.72,0,0,0,.14.76.85.85,0,0,0,.49.39,3.41,3.41,0,0,0,1,.11V14H4.42a2.46,2.46,0,0,1-1.68-.46A2.07,2.07,0,0,1,2.23,12V9.43A1.38,1.38,0,0,0,2,8.51a1.18,1.18,0,0,0-1-.33V7.34A1.22,1.22,0,0,0,2,7a1.43,1.43,0,0,0,.27-.93V4a2.07,2.07,0,0,1,.51-1.58A2.46,2.46,0,0,1,4.42,2H5v.78A3.41,3.41,0,0,0,4,2.89Z"/></svg>