<svg xmlns="http://www.w3.org/2000/svg" width="128" height="128" viewBox="0 0 128 128"><defs><style>.cls-1{fill:none;}.cls-2{fill:#ad297e;}.cls-3{fill:#66625d;}</style></defs><title>spoofax</title><g id="_128" data-name="128"><rect class="cls-1" width="128" height="128"/><path class="cls-2" d="M52.14,92.68a21,21,0,0,0,4,1.28,23.45,23.45,0,0,0,5.47.6,19.52,19.52,0,0,0,11-3.15,9.92,9.92,0,0,0,4.79-8.74,8.94,8.94,0,0,0-2.06-6,16,16,0,0,0-5.09-3.93c-2-1-4.81-2.23-8.35-3.64a95.51,95.51,0,0,1-11.26-5,21.3,21.3,0,0,1-7.33-6.73q-3-4.4-3-11.29,0-11,6.95-16.55T64.58,24a45.49,45.49,0,0,1,9.13,1q4.82,1,8.22,2.07c2.28.7,3.71,1.16,4.32,1.38l-.51,18.89H79.07L75.56,35.45c-.27-.07-.92-.28-2-.62a28.69,28.69,0,0,0-4-.95,28.19,28.19,0,0,0-4.91-.44q-6.57,0-10.13,3.18A9.85,9.85,0,0,0,51,44.24a8.94,8.94,0,0,0,2.06,6,16.46,16.46,0,0,0,5.14,4,90.87,90.87,0,0,0,8.66,3.69,97.91,97.91,0,0,1,10.93,4.83A21.16,21.16,0,0,1,85,69.18a17.54,17.54,0,0,1,3,10.5,24.05,24.05,0,0,1-3.61,13.49,21.75,21.75,0,0,1-9.71,8.17A33.44,33.44,0,0,1,61.17,104a46.15,46.15,0,0,1-9.48-1,67,67,0,0,1-7.75-2c-2.06-.71-3.37-1.17-3.94-1.39V80.12h8.22l2.06,11.67C50.55,91.93,51.17,92.23,52.14,92.68Z"/><path class="cls-3" d="M106.09,19.68q4.08,3.67,4.08,12.63V48.72c0,3.19.73,5.65,2.17,7.38s4,2.6,7.66,2.6v6.75c-3.66,0-6.22.86-7.66,2.58s-2.17,4.19-2.17,7.41V95.69q0,8.9-4.08,12.61T92.63,112H88v-6.24a25.33,25.33,0,0,0,7.68-.91,6.38,6.38,0,0,0,3.88-3.07,13.26,13.26,0,0,0,1.14-6.09V75.44a13.21,13.21,0,0,1,9.57-13.36,14.21,14.21,0,0,1-7.15-5,13.94,13.94,0,0,1-2.42-8.32V32.31a13.26,13.26,0,0,0-1.14-6.09,6.38,6.38,0,0,0-3.88-3.07A25.33,25.33,0,0,0,88,22.24V16h4.63Q102,16,106.09,19.68Z"/><path class="cls-3" d="M32.31,23.15a6.44,6.44,0,0,0-3.88,3.07,13.4,13.4,0,0,0-1.13,6.09V48.72A14,14,0,0,1,24.88,57a14.08,14.08,0,0,1-7.15,5.07,14.09,14.09,0,0,1,7.15,5,14,14,0,0,1,2.42,8.32V95.69a13.4,13.4,0,0,0,1.13,6.09,6.44,6.44,0,0,0,3.88,3.07,25.41,25.41,0,0,0,7.69.91V112H35.36q-9.37,0-13.45-3.7T17.82,95.69V75.44q0-4.78-2.16-7.38c-1.44-1.74-4-2.61-7.66-2.61V58.7c3.66,0,6.22-.86,7.66-2.58s2.16-4.18,2.16-7.4V32.31q0-8.91,4.09-12.61T35.36,16H40v6.24A25.41,25.41,0,0,0,32.31,23.15Z"/></g></svg>