<?xml version="1.0" encoding="utf-8"?>
<!-- Generator: Adobe Illustrator 16.0.0, SVG Export Plug-In . SVG Version: 6.00 Build 0)  -->
<!DOCTYPE svg PUBLIC "-//W3C//DTD SVG 1.1//EN" "http://www.w3.org/Graphics/SVG/1.1/DTD/svg11.dtd">
<svg version="1.1" xmlns="http://www.w3.org/2000/svg" xmlns:xlink="http://www.w3.org/1999/xlink" x="0px" y="0px" width="16px"
	 height="16px" viewBox="0 0 16 16" enable-background="new 0 0 16 16" xml:space="preserve">
<g id="_x32_56">
</g>
<g id="_x33_2">
</g>
<g id="_x31_6">
	<g>
		<path fill="#231F20" d="M3.147,2.44c-0.236,0.082-0.403,0.22-0.502,0.415C2.547,3.049,2.499,3.324,2.499,3.679v2.217
			c0,0.439-0.104,0.813-0.313,1.121C1.978,7.326,1.668,7.554,1.259,7.701c0.409,0.148,0.719,0.375,0.927,0.682
			c0.209,0.306,0.313,0.681,0.313,1.125v2.736c0,0.355,0.048,0.629,0.146,0.823c0.099,0.194,0.266,0.333,0.502,0.416
			c0.237,0.083,0.568,0.124,0.996,0.124v0.843H3.543c-0.81,0-1.391-0.167-1.742-0.501c-0.352-0.333-0.528-0.901-0.528-1.704V9.507
			c0-0.431-0.094-0.764-0.28-0.998S0.474,8.158,0,8.158V7.245c0.474,0,0.806-0.115,0.992-0.348c0.187-0.233,0.28-0.566,0.28-1.001
			V3.679c0-0.803,0.177-1.371,0.528-1.705c0.352-0.333,0.933-0.5,1.742-0.5h0.601v0.842C3.716,2.317,3.385,2.358,3.147,2.44z"/>
		<g>
			<g>
				<path fill="#892164" d="M6.763,11.121c0.289,0.047,0.631,0.07,1.026,0.07c1.307,0,1.963-0.444,1.969-1.333
					c0-0.362-0.16-0.635-0.479-0.819c-0.319-0.184-0.815-0.377-1.489-0.58C7.173,8.267,6.674,8.082,6.292,7.903
					C5.91,7.725,5.583,7.467,5.312,7.13S4.904,6.355,4.904,5.817c0-0.845,0.296-1.495,0.887-1.95
					c0.592-0.456,1.356-0.683,2.296-0.683c0.407,0,0.83,0.037,1.268,0.111c0.438,0.074,0.813,0.152,1.12,0.235
					c0.309,0.082,0.502,0.137,0.582,0.165l-0.052,2.271H9.877l-0.28-1.316C9.563,4.638,9.488,4.616,9.372,4.583
					S9.093,4.52,8.884,4.493C8.675,4.465,8.442,4.451,8.188,4.451c-1.029,0-1.545,0.376-1.545,1.127
					c0,0.362,0.166,0.641,0.497,0.835s0.83,0.399,1.497,0.613c0.6,0.203,1.092,0.391,1.477,0.564s0.71,0.422,0.976,0.749
					c0.266,0.326,0.399,0.736,0.399,1.23c0,0.933-0.362,1.646-1.086,2.14c-0.725,0.494-1.636,0.741-2.732,0.741
					c-0.476,0-0.917-0.027-1.324-0.082c-0.407-0.055-0.732-0.11-0.976-0.165c-0.243-0.055-0.393-0.096-0.449-0.123V9.586h1.222
					l0.187,1.448C6.33,11.046,6.475,11.075,6.763,11.121z"/>
			</g>
		</g>
		<path fill="#231F20" d="M14.199,1.972c0.352,0.332,0.528,0.901,0.528,1.708v2.217c0,0.43,0.094,0.763,0.28,0.998
			C15.194,7.129,15.526,7.245,16,7.245v0.913c-0.474,0-0.806,0.116-0.992,0.348c-0.187,0.233-0.28,0.566-0.28,1.001v2.736
			c0,0.803-0.177,1.371-0.528,1.704c-0.352,0.333-0.933,0.501-1.742,0.501h-0.601v-0.843c0.427,0,0.759-0.041,0.996-0.124
			c0.236-0.082,0.403-0.221,0.502-0.416c0.099-0.194,0.146-0.468,0.146-0.823V9.507c0-0.439,0.104-0.813,0.313-1.122
			c0.208-0.308,0.518-0.537,0.927-0.685c-0.409-0.147-0.719-0.374-0.927-0.681c-0.209-0.306-0.313-0.681-0.313-1.124V3.679
			c0-0.355-0.048-0.63-0.146-0.824c-0.099-0.195-0.266-0.333-0.502-0.415c-0.237-0.083-0.569-0.124-0.996-0.124V1.475h0.601
			C13.267,1.475,13.848,1.641,14.199,1.972z"/>
	</g>
</g>
</svg>
