<?xml version="1.0" encoding="utf-8"?>
<!-- Generator: Adobe Illustrator 16.0.0, SVG Export Plug-In . SVG Version: 6.00 Build 0)  -->
<!DOCTYPE svg PUBLIC "-//W3C//DTD SVG 1.1//EN" "http://www.w3.org/Graphics/SVG/1.1/DTD/svg11.dtd">
<svg version="1.1" xmlns="http://www.w3.org/2000/svg" xmlns:xlink="http://www.w3.org/1999/xlink" x="0px" y="0px" width="1024px"
	 height="1024px" viewBox="0 0 1024 1024" enable-background="new 0 0 1024 1024" xml:space="preserve">
<g id="_x31_024">
	<g>
		<path fill="#231F20" d="M216.02,164.762c-14.463,5.18-24.674,13.877-30.641,26.098c-5.971,12.219-8.955,29.484-8.955,51.797
			v139.451c0,27.625-6.369,51.133-19.104,70.525c-12.736,19.391-31.578,33.736-56.512,43.031
			c24.934,9.295,43.775,23.574,56.512,42.832c12.734,19.258,19.104,42.832,19.104,70.723v172.125
			c0,22.313,2.984,39.578,8.955,51.797c5.967,12.207,16.178,20.918,30.641,26.098c14.461,5.18,34.686,7.766,60.691,7.766V920H240.1
			c-49.35,0-84.77-10.504-106.26-31.477c-21.49-20.988-32.234-56.723-32.234-107.18V609.219c0-27.094-5.711-48.012-17.113-62.754
			C73.082,531.723,52.914,524.352,24,524.352v-57.375c28.914,0,49.082-7.307,60.492-21.914
			c11.402-14.609,17.113-35.596,17.113-62.955V242.656c0-50.469,10.744-86.197,32.234-107.182C155.33,114.492,190.75,104,240.1,104
			h36.611v52.99C250.705,156.99,230.48,159.582,216.02,164.762z"/>
		<g>
			<g>
				<path fill="#892164" d="M436.531,710.766c17.594,2.938,38.469,4.391,62.625,4.391c79.703,0,119.734-27.938,120.078-83.844
					c0-22.766-9.75-39.938-29.25-51.5s-49.766-23.719-90.828-36.484c-37.625-12.078-68.078-23.719-91.359-34.938
					s-43.203-27.438-59.766-48.656S323.188,411,323.188,377.188c0-53.141,18.016-94.031,54.078-122.672
					c36.063-28.625,82.719-42.953,140-42.953c24.844,0,50.625,2.328,77.375,6.984s49.516,9.578,68.328,14.75
					c18.797,5.188,30.609,8.625,35.453,10.344L695.313,386.5h-68.828l-17.078-82.813c-2.078-0.688-6.656-2.063-13.719-4.141
					c-7.078-2.063-17-3.969-29.766-5.688s-26.906-2.594-42.438-2.594c-62.813,0-94.203,23.641-94.203,70.906
					c0,22.781,10.094,40.281,30.281,52.531s50.641,25.109,91.359,38.563c36.563,12.781,66.578,24.594,90.047,35.469
					s43.313,26.563,59.531,47.094s24.328,46.313,24.328,77.375c0,58.656-22.094,103.516-66.25,134.578
					c-44.172,31.063-99.734,46.578-166.672,46.578c-28.984,0-55.891-1.734-80.734-5.172c-24.844-3.469-44.688-6.906-59.531-10.359
					s-23.984-6.047-27.422-7.766V614.234h74.531l11.391,91.094C410.141,706.016,418.938,707.828,436.531,710.766z"/>
			</g>
		</g>
		<path fill="#231F20" d="M890.16,135.275c21.488,20.852,32.234,56.646,32.234,107.381v139.451c0,27.098,5.711,48.014,17.117,62.756
			c11.395,14.74,31.57,22.113,60.488,22.113v57.375c-28.918,0-49.094,7.305-60.488,21.914
			c-11.406,14.609-17.117,35.594-17.117,62.953v172.125c0,50.457-10.746,86.191-32.234,107.18
			C868.672,909.496,833.25,920,783.906,920h-36.617v-52.996c26.004,0,46.223-2.586,60.691-7.766
			c14.461-5.18,24.676-13.891,30.641-26.098c5.973-12.219,8.957-29.484,8.957-51.797V609.219c0-27.625,6.363-51.133,19.102-70.523
			c12.734-19.391,31.57-33.736,56.512-43.031c-24.941-9.295-43.777-23.574-56.512-42.83c-12.738-19.26-19.102-42.836-19.102-70.727
			V242.656c0-22.313-2.984-39.578-8.957-51.797c-5.965-12.221-16.18-20.918-30.641-26.098c-14.469-5.18-34.688-7.771-60.691-7.771
			V104h36.617C833.25,104,868.672,114.426,890.16,135.275z"/>
	</g>
</g>
<g id="_x33_2">
</g>
<g id="_x31_6">
</g>
</svg>
