<svg xmlns="http://www.w3.org/2000/svg" viewBox="0 0 32 32"><defs><style>.cls-1{fill:#231f20;}.cls-2{fill:#892164;}</style></defs><title>spoofax</title><g id="_32" data-name="32"><path class="cls-1" d="M6.75,5.15a1.63,1.63,0,0,0-1,.81,3.93,3.93,0,0,0-.28,1.62v4.36a4,4,0,0,1-.59,2.2,3.49,3.49,0,0,1-1.77,1.35,3.53,3.53,0,0,1,1.77,1.34A4,4,0,0,1,5.51,19v5.38A3.93,3.93,0,0,0,5.79,26a1.63,1.63,0,0,0,1,.81,5.89,5.89,0,0,0,1.9.24v1.66H7.5a4.67,4.67,0,0,1-3.32-1,4.59,4.59,0,0,1-1-3.35V19a3.11,3.11,0,0,0-.53-2,2.27,2.27,0,0,0-1.89-.69v-1.8a2.3,2.3,0,0,0,1.89-.68,3.12,3.12,0,0,0,.53-2V7.58a4.59,4.59,0,0,1,1-3.35,4.67,4.67,0,0,1,3.32-1H8.65V4.91A5.89,5.89,0,0,0,6.75,5.15Z"/><path class="cls-2" d="M12.81,22.05a10.67,10.67,0,0,0,2.79.3c2,0,3.74-.57,3.74-2.62,0-3.58-9.24-1.92-9.24-8,0-3.45,2.65-5.17,6.06-5.17a21.65,21.65,0,0,1,5.67,1l-.1,4.47H19.57L19,9.49a8.18,8.18,0,0,0-2.68-.39c-1.69,0-2.95.53-2.95,2.22,0,3.54,9.24,2.18,9.24,7.85,0,3.81-3.31,5.66-7.28,5.66a18.22,18.22,0,0,1-5.24-.73V19.2h2.32Z"/><path class="cls-1" d="M27.82,4.23a4.56,4.56,0,0,1,1,3.35v4.36a3.11,3.11,0,0,0,.53,2,2.27,2.27,0,0,0,1.89.69v1.8a2.27,2.27,0,0,0-1.89.68,3.12,3.12,0,0,0-.53,2v5.38a4.59,4.59,0,0,1-1,3.35,4.67,4.67,0,0,1-3.32,1H23.35V27.09a5.89,5.89,0,0,0,1.9-.24,1.63,1.63,0,0,0,1-.81,3.93,3.93,0,0,0,.28-1.62V19a4,4,0,0,1,.59-2.21,3.53,3.53,0,0,1,1.77-1.34,3.53,3.53,0,0,1-1.77-1.34,4,4,0,0,1-.59-2.21V7.58A3.93,3.93,0,0,0,26.21,6a1.63,1.63,0,0,0-1-.81,5.89,5.89,0,0,0-1.9-.24V3.25H24.5A4.67,4.67,0,0,1,27.82,4.23Z"/></g></svg>