<svg xmlns="http://www.w3.org/2000/svg" width="1024" height="1024" viewBox="0 0 1024 1024"><defs><style>.cls-1{fill:none;}.cls-2{fill:#ad297e;}.cls-3{fill:#66625d;}</style></defs><title>spoofax</title><g id="_1024" data-name="1024"><rect class="cls-1" width="1024" height="1024"/><path class="cls-2" d="M417.09,741.47q11.66,5.43,31.71,10.19a188.35,188.35,0,0,0,43.75,4.79q49.34,0,87.67-25.2t38.32-69.9q0-28.65-16.46-48a128,128,0,0,0-40.73-31.49q-24.27-12.15-66.8-29.09-55.79-21.27-90.09-39.93T345.87,459q-24.28-35.16-24.27-90.31,0-88.12,55.58-132.41T516.61,192a358.46,358.46,0,0,1,73,8q38.54,8,65.8,16.51T690,227.61l-4,151.1H632.58l-28.1-95.09c-2.12-.57-7.35-2.24-15.64-5s-19-5.28-32.09-7.6a225.6,225.6,0,0,0-39.35-3.48q-52.56,0-81,25.41t-28.5,61q0,28.67,16.46,48t41.13,31.91q24.68,12.59,69.24,29.52Q588,483.79,622.15,502t58,51.45q23.86,33.19,23.87,84,0,63.84-28.89,107.9a174,174,0,0,1-77.64,65.34Q548.71,832,489.33,832a369.9,369.9,0,0,1-75.85-7.82q-37.31-7.81-62-16.28T320,796.83V641h65.8l16.45,93.34Q405.48,736,417.09,741.47Z"/><path class="cls-3" d="M848.73,157.45q32.67,29.42,32.67,101.06V389.75q0,38.26,17.32,59.07T960,469.63v54q-43.93,0-61.28,20.64T881.4,603.49v162q0,71.25-32.67,100.88T741.08,896H704V846.12q39.51,0,61.48-7.32t31-24.55q9.11-17.25,9.08-48.76v-162q0-39,19.35-66.36t57.25-40.51q-37.87-13.11-57.25-40.3t-19.35-66.57V258.51q0-31.51-9.08-48.75t-31-24.56q-22-7.33-61.48-7.32V128h37.08Q816.08,128,848.73,157.45Z"/><path class="cls-3" d="M258.51,185.2q-22,7.29-31,24.56t-9.08,48.75V389.75q0,39-19.35,66.37t-57.25,40.5q37.9,13.13,57.25,40.32t19.35,66.55v162q0,31.5,9.08,48.76t31,24.55q22,7.34,61.49,7.32V896H282.89q-75,0-107.63-29.63T142.6,765.49v-162q0-38.24-17.32-59T64,523.62v-54q43.94,0,61.28-20.63t17.32-59.25V258.51q0-71.26,32.66-100.88T282.89,128H320v49.88Q280.47,177.88,258.51,185.2Z"/></g></svg>