<?xml version="1.0" encoding="utf-8"?>
<!-- Generator: Adobe Illustrator 24.0.2, SVG Export Plug-In . SVG Version: 6.00 Build 0)  -->
<svg version="1.1" xmlns="http://www.w3.org/2000/svg" xmlns:xlink="http://www.w3.org/1999/xlink" x="0px" y="0px"
	 viewBox="0 0 128 128" enable-background="new 0 0 128 128" xml:space="preserve">
<g id="_x31_6">
</g>
<g id="_x33_2">
</g>
<g id="_x36_4">
</g>
<g id="_x31_28">
	<rect fill="none" width="128" height="128"/>
	<circle fill="#FB7E14" cx="64" cy="64" r="64"/>
	<path fill="#FFFFFF" d="M52.137,92.684c0.971,0.452,2.291,0.876,3.963,1.274c1.672,0.398,3.495,0.599,5.469,0.599
		c4.112,0,7.764-1.051,10.959-3.15c3.192-2.097,4.79-5.009,4.79-8.738c0-2.388-0.686-4.386-2.057-5.995
		c-1.371-1.611-3.067-2.923-5.091-3.937c-2.023-1.012-4.808-2.224-8.351-3.636c-4.649-1.772-8.4-3.436-11.26-4.991
		c-2.859-1.558-5.301-3.8-7.324-6.731C41.21,54.447,40.2,50.684,40.2,46.089c0-7.344,2.315-12.861,6.947-16.552
		C51.778,25.845,57.587,24,64.576,24c2.876,0,5.919,0.335,9.129,1.004c3.211,0.67,5.95,1.359,8.225,2.064
		c2.275,0.705,3.714,1.167,4.315,1.384l-0.501,18.886h-6.671L75.56,35.452c-0.266-0.072-0.92-0.28-1.955-0.624
		c-1.034-0.346-2.374-0.66-4.011-0.951c-1.64-0.29-3.28-0.435-4.918-0.435c-4.38,0-7.755,1.059-10.13,3.176
		c-2.374,2.115-3.562,4.658-3.562,7.624c0,2.389,0.686,4.389,2.057,5.997c1.371,1.611,3.084,2.941,5.141,3.99
		c2.057,1.048,4.943,2.279,8.655,3.689c4.445,1.703,8.09,3.311,10.933,4.832c2.841,1.518,5.257,3.662,7.248,6.432
		C87.005,71.95,88,75.452,88,79.685c0,5.32-1.204,9.815-3.612,13.488c-2.407,3.671-5.641,6.396-9.704,8.168
		c-4.063,1.77-8.568,2.66-13.517,2.66c-3.212,0-6.37-0.327-9.482-0.977c-3.109-0.652-5.692-1.33-7.749-2.035
		c-2.057-0.705-3.368-1.167-3.936-1.384V80.12h8.225l2.057,11.667C50.55,91.932,51.167,92.23,52.137,92.684z"/>
	<path fill="#FFFFFF" d="M106.092,19.681c2.721,2.452,4.083,6.663,4.083,12.633v16.405c0,3.189,0.721,5.65,2.165,7.383
		c1.444,1.733,4,2.602,7.66,2.602v6.749c-3.661,0-6.216,0.86-7.66,2.579c-1.444,1.718-2.165,4.186-2.165,7.404v20.251
		c0,5.937-1.361,10.14-4.083,12.61c-2.721,2.466-7.207,3.703-13.457,3.703H88v-6.235c3.293,0,5.853-0.303,7.685-0.914
		c1.83-0.609,3.124-1.635,3.879-3.07c0.758-1.437,1.135-3.469,1.135-6.094V75.436c0-3.248,0.805-6.015,2.418-8.295
		c1.613-2.281,4-3.97,7.157-5.063c-3.157-1.093-5.544-2.773-7.157-5.038c-1.613-2.267-2.418-5.04-2.418-8.32V32.314
		c0-2.627-0.377-4.658-1.135-6.094c-0.755-1.439-2.049-2.463-3.879-3.07c-1.832-0.611-4.392-0.915-7.685-0.915V16h4.635
		C98.885,16,103.371,17.227,106.092,19.681z"/>
	<path fill="#FFFFFF" d="M32.313,23.15c-1.832,0.607-3.124,1.631-3.879,3.07c-0.755,1.437-1.135,3.467-1.135,6.094v16.405
		c0,3.25-0.806,6.015-2.418,8.296c-1.613,2.283-3.998,3.97-7.156,5.063c3.158,1.093,5.543,2.774,7.156,5.04
		c1.612,2.265,2.418,5.039,2.418,8.318v20.251c0,2.625,0.38,4.657,1.135,6.094c0.755,1.435,2.048,2.46,3.879,3.07
		c1.832,0.611,4.393,0.914,7.687,0.914V112h-4.638c-6.249,0-10.732-1.237-13.455-3.703c-2.721-2.47-4.082-6.673-4.082-12.61V75.436
		c0-3.186-0.722-5.647-2.165-7.381c-1.444-1.735-3.998-2.603-7.66-2.603v-6.749c3.662,0,6.215-0.86,7.66-2.579
		c1.443-1.719,2.165-4.187,2.165-7.406V32.314c0-5.939,1.361-10.142,4.082-12.61C24.629,17.236,29.113,16,35.362,16H40v6.235
		C36.706,22.235,34.145,22.539,32.313,23.15z"/>
</g>
<g id="_x31_024">
</g>
</svg>
