<svg xmlns="http://www.w3.org/2000/svg" width="32" height="32" viewBox="0 0 32 32"><defs><style>.cls-1{fill:none;}.cls-2{fill:#ad297e;}.cls-3{fill:#66625d;}</style></defs><title>spoofax</title><g id="_32" data-name="32"><rect class="cls-1" width="32" height="32"/><path class="cls-2" d="M13,23.17a6.08,6.08,0,0,0,1,.32,5.93,5.93,0,0,0,1.37.15,4.84,4.84,0,0,0,2.74-.79,2.47,2.47,0,0,0,1.2-2.18,2.24,2.24,0,0,0-.51-1.5,4.22,4.22,0,0,0-1.28-1c-.5-.25-1.2-.55-2.09-.9A24.36,24.36,0,0,1,12.64,16a5.16,5.16,0,0,1-1.83-1.69,4.82,4.82,0,0,1-.76-2.82,5,5,0,0,1,1.74-4.14A6.76,6.76,0,0,1,16.14,6a11.13,11.13,0,0,1,2.29.25c.8.17,1.48.34,2.05.52l1.08.34-.12,4.72H19.77l-.88-3c-.07,0-.23-.07-.49-.15a6.42,6.42,0,0,0-1-.24,7.3,7.3,0,0,0-1.23-.11,3.7,3.7,0,0,0-2.53.79,2.46,2.46,0,0,0-.89,1.91,2.24,2.24,0,0,0,.51,1.5,4.06,4.06,0,0,0,1.29,1,22.08,22.08,0,0,0,2.16.92,25.32,25.32,0,0,1,2.73,1.21,5.15,5.15,0,0,1,1.81,1.61A4.34,4.34,0,0,1,22,19.92a6,6,0,0,1-.9,3.37,5.47,5.47,0,0,1-2.43,2.05,8.39,8.39,0,0,1-3.38.66,11.76,11.76,0,0,1-2.37-.24c-.78-.17-1.42-.34-1.94-.51s-.84-.29-1-.35V20h2.06L12.57,23Z"/><path class="cls-3" d="M26.52,4.92a4.1,4.1,0,0,1,1,3.16v4.1A2.83,2.83,0,0,0,28.08,14a2.41,2.41,0,0,0,1.92.65v1.68a2.41,2.41,0,0,0-1.92.65,2.8,2.8,0,0,0-.54,1.85v5.06a4.08,4.08,0,0,1-1,3.15,4.93,4.93,0,0,1-3.36.93H22V26.44a6.11,6.11,0,0,0,1.92-.23,1.62,1.62,0,0,0,1-.76,3.34,3.34,0,0,0,.28-1.53V18.86a3.32,3.32,0,0,1,2.4-3.34,3.48,3.48,0,0,1-1.79-1.26,3.53,3.53,0,0,1-.61-2.08V8.08a3.34,3.34,0,0,0-.28-1.53,1.62,1.62,0,0,0-1-.76A6.11,6.11,0,0,0,22,5.56V4h1.16A5,5,0,0,1,26.52,4.92Z"/><path class="cls-3" d="M8.08,5.79a1.62,1.62,0,0,0-1,.76,3.33,3.33,0,0,0-.29,1.53v4.1a3.51,3.51,0,0,1-.6,2.07,3.49,3.49,0,0,1-1.79,1.27,3.48,3.48,0,0,1,1.79,1.26,3.52,3.52,0,0,1,.6,2.08v5.06a3.33,3.33,0,0,0,.29,1.53,1.62,1.62,0,0,0,1,.76,6.11,6.11,0,0,0,1.92.23V28H8.84a4.93,4.93,0,0,1-3.36-.93,4.08,4.08,0,0,1-1-3.15V18.86A2.78,2.78,0,0,0,3.91,17,2.38,2.38,0,0,0,2,16.36V14.68A2.38,2.38,0,0,0,3.91,14a2.76,2.76,0,0,0,.55-1.85V8.08a4.08,4.08,0,0,1,1-3.15A4.93,4.93,0,0,1,8.84,4H10V5.56A6.11,6.11,0,0,0,8.08,5.79Z"/></g></svg>