<svg xmlns="http://www.w3.org/2000/svg" viewBox="0 0 1024 1024"><defs><style>.cls-1{fill:#892164;}.cls-2{fill:#231f20;stroke:#231f20;stroke-miterlimit:10;stroke-width:2px;}</style></defs><title>spoofax</title><g id="_16" data-name="16"><path class="cls-1" d="M409.91,740.13q12.52,5.39,34.1,10.13A218.8,218.8,0,0,0,491.08,755q53.07,0,94.3-25t41.22-69.5q0-28.47-17.7-47.67t-43.81-31.31Q539,569.42,493.22,552.57q-60-21.15-96.89-39.7t-63-53.53q-26.13-35-26.11-89.79,0-87.6,59.78-131.63t150-44a416,416,0,0,1,78.56,8q41.44,8,70.78,16.42t37.13,11l-4.31,150.21H641.71L611.48,285c-2.29-.57-7.91-2.23-16.82-5s-20.43-5.25-34.52-7.56A261.68,261.68,0,0,0,517.81,269q-56.53,0-87.17,25.26T400,354.88q0,28.5,17.7,47.69t44.24,31.73q26.57,12.51,74.48,29.34,57.38,20.33,94.09,38.44a178.19,178.19,0,0,1,62.37,51.15q25.67,33,25.67,83.51,0,63.46-31.08,107.27t-83.51,65q-52.46,21.12-116.32,21.15a429.35,429.35,0,0,1-81.6-7.77q-40.12-7.77-66.68-16.19t-33.87-11V640.2h70.78L394,733Q397.42,734.73,409.91,740.13Z"/><path class="cls-2" d="M191.27,177.27q-20.94,7.46-29.56,25.15t-8.65,49.94V386.78q0,40-18.44,68T80.08,496.25q36.11,13.42,54.54,41.3t18.44,68.16V771.65q0,32.26,8.65,49.94t29.56,25.15q20.94,7.51,58.59,7.49v51.09H214.51Q143.07,905.32,112,875T80.84,771.65V605.71q0-39.16-16.51-60.48T6,523.9V468.6q41.87,0,58.38-21.13t16.51-60.69V252.36q0-73,31.11-103.33t102.56-30.35h35.35v51.09Q212.21,169.77,191.27,177.27Z"/><path class="cls-2" d="M912.05,148.84Q943.16,179,943.16,252.36V386.78q0,39.2,16.51,60.5t58.38,21.32v55.3q-41.85,0-58.38,21.14t-16.51,60.67V771.65q0,73-31.11,103.33T809.48,905.32H774.16V854.23q37.64,0,58.57-7.49t29.56-25.15q8.67-17.67,8.65-49.94V605.71q0-39.93,18.44-68t54.54-41.49Q907.83,482.81,889.38,455t-18.44-68.18V252.36q0-32.3-8.65-49.94t-29.56-25.15q-20.94-7.52-58.57-7.5V118.68h35.32Q880.94,118.68,912.05,148.84Z"/></g></svg>