<?xml version="1.0" encoding="utf-8"?>
<!-- Generator: Adobe Illustrator 24.0.2, SVG Export Plug-In . SVG Version: 6.00 Build 0)  -->
<svg version="1.1" xmlns="http://www.w3.org/2000/svg" xmlns:xlink="http://www.w3.org/1999/xlink" x="0px" y="0px"
	 viewBox="0 0 32 32" enable-background="new 0 0 32 32" xml:space="preserve">
<g id="_x31_6">
</g>
<g id="_x33_2">
	<rect fill="none" width="32" height="32"/>
	<circle fill="#FB7E14" cx="16" cy="16" r="16"/>
	<path fill="#FFFFFF" d="M13.034,23.171c0.243,0.113,0.573,0.219,0.991,0.318c0.418,0.1,0.874,0.15,1.367,0.15
		c1.028,0,1.941-0.263,2.74-0.788c0.798-0.524,1.197-1.252,1.197-2.184c0-0.597-0.171-1.097-0.514-1.499
		c-0.343-0.403-0.767-0.731-1.273-0.984c-0.506-0.253-1.202-0.556-2.088-0.909c-1.162-0.443-2.1-0.859-2.815-1.248
		c-0.715-0.389-1.325-0.95-1.831-1.683c-0.506-0.733-0.759-1.674-0.759-2.822c0-1.836,0.579-3.215,1.737-4.138
		C12.944,6.461,14.397,6,16.144,6c0.719,0,1.48,0.084,2.282,0.251c0.803,0.168,1.488,0.34,2.056,0.516
		c0.569,0.176,0.928,0.292,1.079,0.346l-0.125,4.722h-1.668L18.89,8.863c-0.066-0.018-0.23-0.07-0.489-0.156
		c-0.259-0.086-0.593-0.165-1.003-0.238c-0.41-0.072-0.82-0.109-1.23-0.109c-1.095,0-1.939,0.265-2.533,0.794
		c-0.593,0.529-0.891,1.165-0.891,1.906c0,0.597,0.171,1.097,0.514,1.499c0.343,0.403,0.771,0.735,1.285,0.997
		c0.514,0.262,1.236,0.57,2.164,0.922c1.111,0.426,2.022,0.828,2.733,1.208c0.71,0.38,1.314,0.916,1.812,1.608
		C21.751,17.988,22,18.863,22,19.921c0,1.33-0.301,2.454-0.903,3.372c-0.602,0.918-1.41,1.599-2.426,2.042
		C17.655,25.778,16.529,26,15.292,26c-0.803,0-1.592-0.082-2.37-0.244c-0.777-0.163-1.423-0.333-1.937-0.509
		C10.47,25.07,10.142,24.955,10,24.901V20.03h2.056l0.514,2.917C12.638,22.983,12.792,23.058,13.034,23.171z"/>
	<path fill="#FFFFFF" d="M26.523,4.92c0.68,0.613,1.021,1.666,1.021,3.158v4.101c0,0.797,0.18,1.412,0.541,1.846
		c0.361,0.433,1,0.65,1.915,0.65v1.687c-0.915,0-1.554,0.215-1.915,0.645c-0.361,0.429-0.541,1.046-0.541,1.851v5.063
		c0,1.484-0.34,2.535-1.021,3.153C25.843,27.691,24.721,28,23.159,28H22v-1.559c0.823,0,1.463-0.076,1.921-0.229
		c0.458-0.152,0.781-0.409,0.97-0.767c0.189-0.359,0.284-0.867,0.284-1.524v-5.063c0-0.812,0.201-1.504,0.605-2.074
		c0.403-0.57,1-0.993,1.789-1.266c-0.789-0.273-1.386-0.693-1.789-1.259c-0.403-0.567-0.605-1.26-0.605-2.08V8.079
		c0-0.657-0.094-1.164-0.284-1.524c-0.189-0.36-0.512-0.616-0.97-0.767C23.463,5.635,22.823,5.559,22,5.559V4h1.159
		C24.721,4,25.843,4.307,26.523,4.92z"/>
	<path fill="#FFFFFF" d="M8.078,5.788C7.62,5.939,7.297,6.195,7.109,6.555C6.92,6.914,6.825,7.422,6.825,8.079v4.101
		c0,0.813-0.202,1.504-0.605,2.074c-0.403,0.571-0.999,0.993-1.789,1.266c0.79,0.273,1.386,0.693,1.789,1.26
		c0.403,0.566,0.605,1.26,0.605,2.08v5.063c0,0.656,0.095,1.164,0.284,1.524c0.189,0.359,0.512,0.615,0.97,0.767
		c0.458,0.153,1.098,0.229,1.922,0.229V28H8.84c-1.562,0-2.683-0.309-3.364-0.926c-0.68-0.617-1.021-1.668-1.021-3.153v-5.063
		c0-0.797-0.181-1.412-0.541-1.845C3.554,16.58,2.915,16.363,2,16.363v-1.687c0.915,0,1.554-0.215,1.915-0.645
		c0.361-0.43,0.541-1.047,0.541-1.851V8.079c0-1.485,0.34-2.535,1.021-3.153C6.157,4.309,7.278,4,8.84,4H10v1.559
		C9.177,5.559,8.536,5.635,8.078,5.788z"/>
</g>
<g id="_x36_4">
</g>
<g id="_x31_28">
</g>
<g id="_x31_024">
</g>
</svg>
