<?xml version="1.0" encoding="utf-8"?>
<!-- Generator: Adobe Illustrator 24.0.2, SVG Export Plug-In . SVG Version: 6.00 Build 0)  -->
<svg version="1.1" xmlns="http://www.w3.org/2000/svg" xmlns:xlink="http://www.w3.org/1999/xlink" x="0px" y="0px"
	 viewBox="0 0 16 16" enable-background="new 0 0 16 16" xml:space="preserve">
<g id="_x31_6">
	<rect fill="none" width="16" height="16"/>
	<circle fill="#FB7E14" cx="8" cy="8" r="8"/>
	<path fill="#FFFFFF" d="M6.517,11.585c0.121,0.057,0.286,0.109,0.495,0.159c0.209,0.05,0.437,0.075,0.684,0.075
		c0.514,0,0.971-0.131,1.37-0.394c0.399-0.262,0.599-0.626,0.599-1.092c0-0.298-0.086-0.548-0.257-0.749
		C9.236,9.383,9.024,9.219,8.771,9.092C8.518,8.966,8.17,8.814,7.727,8.638C7.146,8.416,6.677,8.208,6.32,8.014
		C5.962,7.819,5.657,7.539,5.404,7.172C5.151,6.806,5.025,6.335,5.025,5.761c0-0.918,0.289-1.608,0.868-2.069
		C6.472,3.231,7.198,3,8.072,3c0.36,0,0.74,0.042,1.141,0.125c0.401,0.084,0.744,0.17,1.028,0.258
		c0.284,0.088,0.464,0.146,0.539,0.173l-0.063,2.361H9.884L9.445,4.432C9.412,4.423,9.33,4.397,9.201,4.354
		C9.071,4.31,8.904,4.271,8.699,4.235C8.494,4.199,8.289,4.18,8.084,4.18c-0.548,0-0.969,0.132-1.266,0.397
		C6.521,4.842,6.373,5.16,6.373,5.53c0,0.299,0.086,0.549,0.257,0.75c0.171,0.201,0.385,0.368,0.643,0.499
		C7.53,6.91,7.89,7.064,8.354,7.24C8.91,7.453,9.366,7.654,9.721,7.844c0.355,0.19,0.657,0.458,0.906,0.804
		C10.876,8.994,11,9.431,11,9.961c0,0.665-0.15,1.227-0.451,1.686c-0.301,0.459-0.705,0.8-1.213,1.021
		C8.828,12.889,8.264,13,7.646,13c-0.402,0-0.796-0.041-1.185-0.122c-0.389-0.081-0.711-0.166-0.969-0.254
		C5.235,12.535,5.071,12.478,5,12.45v-2.435h1.028l0.257,1.458C6.319,11.492,6.396,11.529,6.517,11.585z"/>
	<path fill="#FFFFFF" d="M13.261,2.46c0.34,0.307,0.51,0.833,0.51,1.579V6.09c0,0.399,0.09,0.706,0.271,0.923
		c0.181,0.217,0.5,0.325,0.958,0.325v0.844c-0.458,0-0.777,0.108-0.958,0.322c-0.181,0.215-0.271,0.523-0.271,0.925v2.531
		c0,0.742-0.17,1.268-0.51,1.576C12.921,13.845,12.361,14,11.579,14H11v-0.779c0.412,0,0.732-0.038,0.961-0.114
		c0.229-0.076,0.39-0.204,0.485-0.384c0.095-0.18,0.142-0.434,0.142-0.762V9.43c0-0.406,0.101-0.752,0.302-1.037
		c0.202-0.285,0.5-0.496,0.895-0.633c-0.395-0.137-0.693-0.347-0.895-0.63c-0.202-0.283-0.302-0.63-0.302-1.04V4.039
		c0-0.328-0.047-0.582-0.142-0.762c-0.094-0.18-0.256-0.308-0.485-0.384C11.732,2.817,11.412,2.779,11,2.779V2h0.579
		C12.361,2,12.921,2.153,13.261,2.46z"/>
	<path fill="#FFFFFF" d="M4.039,2.894C3.81,2.97,3.649,3.098,3.554,3.277C3.46,3.457,3.412,3.711,3.412,4.039V6.09
		c0,0.406-0.101,0.752-0.302,1.037C2.909,7.412,2.61,7.623,2.216,7.76C2.61,7.896,2.909,8.106,3.11,8.39
		c0.201,0.283,0.302,0.63,0.302,1.04v2.531c0,0.328,0.047,0.582,0.142,0.762c0.094,0.179,0.256,0.308,0.485,0.384
		C4.268,13.183,4.588,13.221,5,13.221V14H4.42c-0.781,0-1.342-0.155-1.682-0.463c-0.34-0.309-0.51-0.834-0.51-1.576V9.43
		c0-0.398-0.09-0.706-0.271-0.923C1.777,8.29,1.458,8.182,1,8.182V7.338c0.458,0,0.777-0.107,0.957-0.322
		c0.18-0.215,0.271-0.523,0.271-0.926V4.039c0-0.742,0.17-1.268,0.51-1.576C3.079,2.154,3.639,2,4.42,2H5v0.779
		C4.588,2.779,4.268,2.817,4.039,2.894z"/>
</g>
<g id="_x33_2">
</g>
<g id="_x36_4">
</g>
<g id="_x31_28">
</g>
<g id="_x31_024">
</g>
</svg>
