<svg xmlns="http://www.w3.org/2000/svg" viewBox="0 0 16 16"><defs><style>.cls-1{fill:#231f20;}.cls-2{fill:#892164;}</style></defs><title>spoofax</title><g id="_16" data-name="16"><path class="cls-1" d="M3.15,2.44a.79.79,0,0,0-.5.42,1.79,1.79,0,0,0-.15.82V5.9A2,2,0,0,1,2.19,7a1.83,1.83,0,0,1-.93.68,1.89,1.89,0,0,1,.93.68A2,2,0,0,1,2.5,9.51v2.73a1.86,1.86,0,0,0,.15.83.81.81,0,0,0,.5.41,3.16,3.16,0,0,0,1,.13v.84h-.6A2.49,2.49,0,0,1,1.8,14a2.3,2.3,0,0,1-.53-1.71V9.51a1.55,1.55,0,0,0-.28-1,1.18,1.18,0,0,0-1-.35V7.25A1.21,1.21,0,0,0,1,6.9a1.57,1.57,0,0,0,.28-1V3.68A2.32,2.32,0,0,1,1.8,2a2.49,2.49,0,0,1,1.74-.5h.6v.85A3.2,3.2,0,0,0,3.15,2.44Z"/><path class="cls-2" d="M6.33,11a5.8,5.8,0,0,0,1.46.15c1,0,2-.29,2-1.33,0-1.82-4.85-1-4.85-4,0-1.75,1.39-2.63,3.18-2.63a11.65,11.65,0,0,1,3,.51L11,6H9.87L9.6,4.65a4.43,4.43,0,0,0-1.41-.2c-.89,0-1.55.26-1.55,1.13,0,1.8,4.85,1.11,4.85,4,0,1.94-1.74,2.88-3.82,2.88a9.88,9.88,0,0,1-2.75-.37V9.59H6.14Z"/><path class="cls-1" d="M14.2,2a2.29,2.29,0,0,1,.53,1.71V5.9a1.52,1.52,0,0,0,.28,1,1.18,1.18,0,0,0,1,.36v.91a1.18,1.18,0,0,0-1,.35,1.53,1.53,0,0,0-.28,1v2.73A2.3,2.3,0,0,1,14.2,14a2.49,2.49,0,0,1-1.74.5h-.6v-.84a3.16,3.16,0,0,0,1-.13.81.81,0,0,0,.5-.41,1.86,1.86,0,0,0,.15-.83V9.51a2,2,0,0,1,.31-1.12,1.85,1.85,0,0,1,.93-.69A1.83,1.83,0,0,1,13.81,7,2,2,0,0,1,13.5,5.9V3.68a1.79,1.79,0,0,0-.15-.82.79.79,0,0,0-.5-.42,3.2,3.2,0,0,0-1-.12V1.47h.6A2.49,2.49,0,0,1,14.2,2Z"/></g></svg>