<svg xmlns="http://www.w3.org/2000/svg" width="64" height="64" viewBox="0 0 64 64"><defs><style>.cls-1{fill:none;}.cls-2{fill:#ad297e;}.cls-3{fill:#66625d;}</style></defs><title>spoofax</title><g id="_64" data-name="64"><rect class="cls-1" width="64" height="64"/><path class="cls-2" d="M26.07,46.34a10.24,10.24,0,0,0,2,.64,11.77,11.77,0,0,0,2.73.3,9.73,9.73,0,0,0,5.48-1.58,5,5,0,0,0,2.4-4.37,4.42,4.42,0,0,0-1-3,8,8,0,0,0-2.55-2c-1-.51-2.4-1.11-4.17-1.82a47.3,47.3,0,0,1-5.63-2.5,10.53,10.53,0,0,1-3.66-3.36A9.69,9.69,0,0,1,20.1,23q0-5.5,3.47-8.27A13.53,13.53,0,0,1,32.29,12a22.62,22.62,0,0,1,4.56.5c1.61.34,3,.68,4.12,1s1.85.59,2.15.7l-.25,9.44H39.54l-1.76-5.94c-.13,0-.46-.14-1-.32a13.91,13.91,0,0,0-2-.47,13.64,13.64,0,0,0-2.46-.22,7.37,7.37,0,0,0-5.07,1.59,5,5,0,0,0-1.78,3.81,4.43,4.43,0,0,0,1,3,8.3,8.3,0,0,0,2.57,2q1.55.78,4.33,1.84a48.74,48.74,0,0,1,5.46,2.42,10.68,10.68,0,0,1,3.63,3.21A8.83,8.83,0,0,1,44,39.84a12,12,0,0,1-1.81,6.75,10.92,10.92,0,0,1-4.85,4.08A16.65,16.65,0,0,1,30.58,52a22.84,22.84,0,0,1-4.74-.49,31,31,0,0,1-3.87-1c-1-.35-1.69-.58-2-.69V40.06h4.11l1,5.83C25.28,46,25.58,46.12,26.07,46.34Z"/><path class="cls-3" d="M53.05,9.84c1.36,1.23,2,3.33,2,6.32v8.2a5.64,5.64,0,0,0,1.08,3.69c.72.87,2,1.3,3.83,1.3v3.38c-1.83,0-3.11.43-3.83,1.29a5.61,5.61,0,0,0-1.08,3.7V47.84q0,4.45-2,6.31C51.69,55.38,49.44,56,46.32,56H44V52.88a12.81,12.81,0,0,0,3.84-.45,3.23,3.23,0,0,0,1.94-1.54,6.62,6.62,0,0,0,.57-3V37.72a7,7,0,0,1,1.21-4.15A7.07,7.07,0,0,1,55.14,31a7.12,7.12,0,0,1-3.58-2.52,7,7,0,0,1-1.21-4.16v-8.2a6.62,6.62,0,0,0-.57-3.05,3.18,3.18,0,0,0-1.94-1.53A12.44,12.44,0,0,0,44,11.12V8h2.32C49.44,8,51.69,8.61,53.05,9.84Z"/><path class="cls-3" d="M16.16,11.58a3.15,3.15,0,0,0-1.94,1.53,6.62,6.62,0,0,0-.57,3.05v8.2a7,7,0,0,1-1.21,4.15A7.07,7.07,0,0,1,8.86,31a7.12,7.12,0,0,1,3.58,2.52,7,7,0,0,1,1.21,4.16V47.84a6.62,6.62,0,0,0,.57,3,3.2,3.2,0,0,0,1.94,1.54,12.81,12.81,0,0,0,3.84.45V56H17.68c-3.12,0-5.37-.62-6.73-1.85s-2-3.34-2-6.31V37.72A5.6,5.6,0,0,0,7.83,34c-.72-.87-2-1.3-3.83-1.3V29.35c1.83,0,3.11-.43,3.83-1.29a5.61,5.61,0,0,0,1.08-3.7v-8.2q0-4.46,2-6.31C12.31,8.62,14.56,8,17.68,8H20v3.12A12.44,12.44,0,0,0,16.16,11.58Z"/></g></svg>