<?xml version="1.0" encoding="utf-8"?>
<!-- Generator: Adobe Illustrator 16.0.0, SVG Export Plug-In . SVG Version: 6.00 Build 0)  -->
<!DOCTYPE svg PUBLIC "-//W3C//DTD SVG 1.1//EN" "http://www.w3.org/Graphics/SVG/1.1/DTD/svg11.dtd">
<svg version="1.1" xmlns="http://www.w3.org/2000/svg" xmlns:xlink="http://www.w3.org/1999/xlink" x="0px" y="0px" width="32px"
	 height="32px" viewBox="0 0 32 32" enable-background="new 0 0 32 32" xml:space="preserve">
<g id="_x32_56">
</g>
<g id="_x33_2">
	<g>
		<path fill="#231F20" d="M6.751,5.149C6.299,5.311,5.979,5.583,5.793,5.964S5.514,6.886,5.514,7.583v4.358
			c0,0.863-0.199,1.598-0.598,2.204c-0.397,0.606-0.986,1.055-1.766,1.345c0.779,0.291,1.368,0.737,1.766,1.339
			c0.398,0.602,0.598,1.338,0.598,2.21v5.379c0,0.697,0.093,1.237,0.279,1.619c0.187,0.381,0.506,0.654,0.958,0.815
			c0.451,0.162,1.083,0.243,1.896,0.243v1.656H7.503c-1.542,0-2.649-0.328-3.32-0.983c-0.672-0.656-1.008-1.773-1.008-3.35v-5.379
			c0-0.847-0.178-1.5-0.534-1.961c-0.356-0.461-0.987-0.691-1.891-0.691v-1.793c0.903,0,1.534-0.228,1.891-0.685
			s0.534-1.112,0.534-1.967V7.583c0-1.577,0.336-2.694,1.008-3.35C4.854,3.578,5.961,3.25,7.503,3.25h1.145v1.656
			C7.834,4.906,7.202,4.987,6.751,5.149z"/>
		<g>
			<g>
				<path fill="#892164" d="M13.642,22.211c0.55,0.092,1.202,0.137,1.957,0.137c2.491,0,3.741-0.873,3.753-2.62
					c0-0.711-0.306-1.248-0.914-1.609c-0.609-0.361-1.556-0.741-2.839-1.14c-1.176-0.377-2.127-0.741-2.854-1.092
					c-0.729-0.35-1.351-0.857-1.868-1.521s-0.776-1.523-0.776-2.58c0-1.661,0.563-2.938,1.69-3.833
					c1.126-0.895,2.585-1.342,4.375-1.342c0.776,0,1.582,0.073,2.418,0.218c0.835,0.146,1.547,0.299,2.135,0.461
					s0.957,0.27,1.108,0.324l-0.098,4.464h-2.151L19.044,9.49c-0.064-0.021-0.208-0.064-0.429-0.129
					c-0.222-0.065-0.531-0.124-0.93-0.178c-0.399-0.054-0.842-0.081-1.327-0.081c-1.962,0-2.943,0.739-2.943,2.216
					c0,0.712,0.315,1.259,0.946,1.642c0.631,0.383,1.582,0.785,2.854,1.205c1.143,0.399,2.081,0.769,2.814,1.108
					c0.733,0.34,1.354,0.831,1.86,1.472s0.76,1.447,0.76,2.418c0,1.833-0.69,3.235-2.07,4.205c-1.38,0.971-3.116,1.456-5.208,1.456
					c-0.905,0-1.747-0.054-2.523-0.162s-1.396-0.215-1.859-0.323c-0.464-0.108-0.75-0.188-0.857-0.243v-4.901h2.329l0.355,2.847
					C12.816,22.063,13.092,22.12,13.642,22.211z"/>
			</g>
		</g>
		<path fill="#231F20" d="M27.817,4.228c0.672,0.651,1.008,1.77,1.008,3.355v4.358c0,0.847,0.178,1.5,0.534,1.961
			c0.356,0.461,0.987,0.691,1.891,0.691v1.793c-0.903,0-1.534,0.229-1.891,0.685s-0.534,1.112-0.534,1.967v5.379
			c0,1.577-0.336,2.693-1.008,3.35c-0.671,0.655-1.778,0.983-3.32,0.983h-1.145v-1.656c0.813,0,1.444-0.081,1.896-0.243
			c0.452-0.162,0.771-0.434,0.958-0.815c0.187-0.382,0.279-0.921,0.279-1.619v-5.379c0-0.863,0.199-1.598,0.598-2.204
			c0.397-0.605,0.986-1.054,1.766-1.345c-0.779-0.29-1.368-0.736-1.766-1.338c-0.398-0.602-0.598-1.338-0.598-2.21V7.583
			c0-0.697-0.093-1.237-0.279-1.619s-0.506-0.654-0.958-0.815c-0.452-0.162-1.084-0.243-1.896-0.243V3.25h1.145
			C26.039,3.25,27.146,3.576,27.817,4.228z"/>
	</g>
</g>
<g id="_x31_6">
</g>
</svg>
