<?xml version="1.0" encoding="utf-8"?>
<!-- Generator: Adobe Illustrator 24.0.2, SVG Export Plug-In . SVG Version: 6.00 Build 0)  -->
<svg version="1.1" xmlns="http://www.w3.org/2000/svg" xmlns:xlink="http://www.w3.org/1999/xlink" x="0px" y="0px"
	 viewBox="0 0 1024 1024" enable-background="new 0 0 1024 1024" xml:space="preserve">
<g id="_x31_6">
</g>
<g id="_x33_2">
</g>
<g id="_x36_4">
</g>
<g id="_x31_28">
</g>
<g id="_x31_024">
	<rect fill="none" width="1024" height="1024"/>
	<circle fill="#FB7E14" cx="512" cy="512" r="512"/>
	<path fill="#FFFFFF" d="M417.094,741.472c7.765,3.617,18.33,7.004,31.703,10.192c13.373,3.188,27.958,4.79,43.753,4.79
		c32.894,0,62.114-8.408,87.67-25.202c25.536-16.778,38.319-40.074,38.319-69.902c0-19.101-5.486-35.091-16.457-47.959
		c-10.972-12.891-24.538-23.385-40.731-31.496c-16.182-8.094-38.461-17.79-66.806-29.089
		c-37.189-14.179-67.203-27.487-90.082-39.932c-22.869-12.46-42.41-30.4-58.593-53.851c-16.192-23.445-24.274-53.553-24.274-90.312
		c0-58.752,18.523-102.884,55.58-132.414C414.224,206.762,460.695,192,516.611,192c23.011,0,47.356,2.682,73.034,8.029
		c25.688,5.363,47.6,10.875,65.798,16.513c18.198,5.644,29.708,9.338,34.522,11.073l-4.01,151.091h-53.371l-28.1-95.087
		c-2.127-0.573-7.358-2.241-15.643-4.989c-8.274-2.764-18.991-5.28-32.09-7.604c-13.119-2.318-26.238-3.48-39.347-3.48
		c-35.041,0-62.043,8.468-81.044,25.411c-18.992,16.921-28.497,37.266-28.497,60.993c0,19.112,5.485,35.108,16.457,47.976
		c10.972,12.884,24.671,23.528,41.128,31.919c16.457,8.386,39.54,18.231,69.238,29.514c35.56,13.622,64.719,26.49,87.466,38.659
		c22.726,12.147,42.054,29.299,57.981,51.456C696.041,575.602,704,603.613,704,637.476c0,42.563-9.628,78.524-28.894,107.905
		c-19.256,29.37-45.128,51.169-77.635,65.343C564.964,824.886,528.925,832,489.335,832c-25.699,0-50.959-2.616-75.854-7.819
		c-24.874-5.214-45.534-10.644-61.991-16.282c-16.457-5.643-26.94-9.338-31.49-11.073V640.961h65.798l16.457,93.336
		C404.403,735.459,409.339,737.843,417.094,741.472z"/>
	<path fill="#FFFFFF" d="M848.735,157.447c21.771,19.617,32.66,53.301,32.66,101.066v131.24c0,25.509,5.767,45.197,17.322,59.064
		c11.555,13.867,31.996,20.815,61.283,20.815v53.99c-29.286,0-49.727,6.881-61.283,20.634
		c-11.555,13.744-17.322,33.484-17.322,59.231v162.004c0,47.494-10.89,81.121-32.66,100.88C826.964,886.103,791.082,896,741.078,896
		H704v-49.882c26.341,0,46.823-2.425,61.477-7.314c14.643-4.875,24.992-13.078,31.035-24.558c6.064-11.499,9.08-27.754,9.08-48.754
		V603.488c0-25.985,6.442-48.117,19.347-66.36c12.905-18.247,31.997-31.762,57.254-40.508
		c-25.257-8.741-44.349-22.185-57.254-40.304c-12.905-18.133-19.347-40.323-19.347-66.564v-131.24c0-21.015-3.016-37.26-9.08-48.755
		c-6.043-11.508-16.392-19.702-31.035-24.557c-14.653-4.889-35.135-7.319-61.477-7.319V128h37.078
		C791.082,128,826.964,137.816,848.735,157.447z"/>
	<path fill="#FFFFFF" d="M258.508,185.201c-14.652,4.855-24.989,13.049-31.032,24.557c-6.043,11.495-9.08,27.739-9.08,48.755v131.24
		c0,26.003-6.452,48.117-19.345,66.364c-12.904,18.262-31.983,31.763-57.249,40.503c25.266,8.746,44.345,22.189,57.249,40.322
		c12.894,18.119,19.345,40.309,19.345,66.545v162.004c0,21.001,3.037,37.255,9.08,48.754c6.043,11.48,16.38,19.683,31.032,24.558
		c14.652,4.889,35.143,7.314,61.492,7.314V896h-37.106c-49.989,0-85.858-9.897-107.637-29.628
		c-21.769-19.759-32.658-53.386-32.658-100.88V603.488c0-25.49-5.777-45.178-17.321-59.045
		c-11.554-13.882-31.984-20.82-61.278-20.82v-53.99c29.294,0,49.724-6.877,61.278-20.635c11.544-13.753,17.321-33.498,17.321-59.245
		v-131.24c0-47.513,10.89-81.135,32.658-100.881C197.036,137.887,232.905,128,282.894,128H320v49.881
		C293.651,177.881,273.16,180.312,258.508,185.201z"/>
</g>
</svg>
