<?xml version="1.0" encoding="utf-8"?>
<!-- Generator: Adobe Illustrator 24.0.2, SVG Export Plug-In . SVG Version: 6.00 Build 0)  -->
<svg version="1.1" xmlns="http://www.w3.org/2000/svg" xmlns:xlink="http://www.w3.org/1999/xlink" x="0px" y="0px"
	 viewBox="0 0 64 64" enable-background="new 0 0 64 64" xml:space="preserve">
<g id="_x31_6">
</g>
<g id="_x33_2">
</g>
<g id="_x36_4">
	<rect fill="none" width="64" height="64"/>
	<circle fill="#FB7E14" cx="32" cy="32" r="32"/>
	<path fill="#FFFFFF" d="M26.068,46.342c0.485,0.226,1.146,0.438,1.981,0.637c0.836,0.199,1.747,0.299,2.735,0.299
		c2.056,0,3.882-0.525,5.479-1.575c1.596-1.049,2.395-2.505,2.395-4.369c0-1.194-0.343-2.193-1.029-2.997
		c-0.686-0.806-1.534-1.462-2.546-1.968c-1.011-0.506-2.404-1.112-4.175-1.818c-2.324-0.886-4.2-1.718-5.63-2.496
		c-1.429-0.779-2.651-1.9-3.662-3.366c-1.012-1.465-1.517-3.347-1.517-5.645c0-3.672,1.158-6.43,3.474-8.276
		C25.889,12.923,28.793,12,32.288,12c1.438,0,2.96,0.168,4.565,0.502c1.606,0.335,2.975,0.68,4.112,1.032
		c1.137,0.353,1.857,0.584,2.158,0.692l-0.251,9.443h-3.336l-1.756-5.943c-0.133-0.036-0.46-0.14-0.978-0.312
		c-0.517-0.173-1.187-0.33-2.006-0.475c-0.82-0.145-1.64-0.218-2.459-0.218c-2.19,0-3.878,0.529-5.065,1.588
		c-1.187,1.058-1.781,2.329-1.781,3.812c0,1.194,0.343,2.194,1.029,2.998c0.686,0.805,1.542,1.47,2.57,1.995
		c1.029,0.524,2.471,1.139,4.327,1.845c2.223,0.851,4.045,1.656,5.467,2.416c1.42,0.759,2.628,1.831,3.624,3.216
		C43.503,35.975,44,37.726,44,39.842c0,2.66-0.602,4.908-1.806,6.744c-1.203,1.836-2.82,3.198-4.852,4.084
		C35.31,51.555,33.058,52,30.583,52c-1.606,0-3.185-0.163-4.741-0.489c-1.555-0.326-2.846-0.665-3.874-1.018
		C20.94,50.141,20.284,49.91,20,49.802V40.06h4.112l1.029,5.833C25.275,45.966,25.584,46.115,26.068,46.342z"/>
	<path fill="#FFFFFF" d="M53.046,9.84c1.361,1.226,2.041,3.331,2.041,6.317v8.203c0,1.594,0.36,2.825,1.083,3.692
		c0.722,0.867,2,1.301,3.83,1.301v3.374c-1.83,0-3.108,0.43-3.83,1.29c-0.722,0.859-1.083,2.093-1.083,3.702v10.125
		c0,2.968-0.681,5.07-2.041,6.305C51.685,55.381,49.443,56,46.317,56H44v-3.118c1.646,0,2.926-0.152,3.842-0.457
		c0.915-0.305,1.562-0.817,1.94-1.535c0.379-0.719,0.567-1.735,0.567-3.047V37.718c0-1.624,0.403-3.007,1.209-4.147
		c0.807-1.14,2-1.985,3.578-2.532c-1.579-0.546-2.772-1.387-3.578-2.519c-0.807-1.133-1.209-2.52-1.209-4.16v-8.203
		c0-1.313-0.189-2.329-0.567-3.047c-0.378-0.719-1.025-1.231-1.94-1.535c-0.916-0.306-2.196-0.457-3.842-0.457V8h2.317
		C49.443,8,51.685,8.613,53.046,9.84z"/>
	<path fill="#FFFFFF" d="M16.157,11.575c-0.916,0.303-1.562,0.816-1.94,1.535c-0.378,0.718-0.567,1.734-0.567,3.047v8.203
		c0,1.625-0.403,3.007-1.209,4.148c-0.806,1.141-1.999,1.985-3.578,2.531c1.579,0.547,2.772,1.387,3.578,2.52
		c0.806,1.132,1.209,2.519,1.209,4.159v10.125c0,1.313,0.19,2.328,0.567,3.047c0.378,0.717,1.024,1.23,1.94,1.535
		c0.916,0.306,2.196,0.457,3.843,0.457V56h-2.319c-3.124,0-5.366-0.619-6.727-1.852c-1.361-1.235-2.041-3.337-2.041-6.305V37.718
		c0-1.593-0.361-2.824-1.083-3.69C7.108,33.16,5.831,32.726,4,32.726v-3.374c1.831,0,3.108-0.43,3.83-1.29
		c0.721-0.86,1.083-2.094,1.083-3.703v-8.203c0-2.97,0.681-5.071,2.041-6.305C12.315,8.618,14.557,8,17.681,8H20v3.118
		C18.353,11.118,17.072,11.269,16.157,11.575z"/>
</g>
<g id="_x31_28">
</g>
<g id="_x31_024">
</g>
</svg>
