<?xml version="1.0" encoding="utf-8"?>
<!-- Generator: Adobe Illustrator 24.0.2, SVG Export Plug-In . SVG Version: 6.00 Build 0)  -->
<svg version="1.1" xmlns="http://www.w3.org/2000/svg" xmlns:xlink="http://www.w3.org/1999/xlink" x="0px" y="0px"
	 viewBox="0 0 1024 1024" enable-background="new 0 0 1024 1024" xml:space="preserve">
<g id="_x31_6">
	<rect x="1033" y="251" fill="none" width="16" height="16"/>
	<path fill="#AD297E" d="M1039.517,262.586c0.121,0.057,0.286,0.109,0.495,0.159s0.437,0.075,0.684,0.075
		c0.514,0,0.971-0.131,1.37-0.394c0.399-0.262,0.599-0.626,0.599-1.092c0-0.298-0.086-0.548-0.257-0.749
		c-0.171-0.201-0.383-0.365-0.636-0.492c-0.253-0.126-0.601-0.278-1.044-0.455c-0.581-0.222-1.05-0.429-1.408-0.624
		c-0.357-0.195-0.663-0.475-0.915-0.841c-0.253-0.366-0.379-0.837-0.379-1.411c0-0.918,0.289-1.608,0.869-2.069
		c0.579-0.461,1.305-0.692,2.179-0.692c0.36,0,0.74,0.042,1.141,0.125c0.401,0.084,0.744,0.17,1.028,0.258
		c0.284,0.088,0.464,0.146,0.539,0.173l-0.063,2.361h-0.834l-0.439-1.486c-0.033-0.009-0.115-0.035-0.244-0.078
		c-0.129-0.043-0.297-0.083-0.501-0.119c-0.205-0.036-0.41-0.054-0.615-0.054c-0.548,0-0.969,0.132-1.266,0.397
		c-0.297,0.264-0.445,0.582-0.445,0.953c0,0.299,0.086,0.549,0.257,0.75c0.171,0.201,0.385,0.368,0.643,0.499
		c0.257,0.131,0.618,0.285,1.082,0.461c0.556,0.213,1.011,0.414,1.367,0.604c0.355,0.19,0.657,0.458,0.906,0.804
		c0.249,0.346,0.373,0.783,0.373,1.313c0,0.665-0.15,1.227-0.451,1.686c-0.301,0.459-0.705,0.8-1.213,1.021
		c-0.508,0.221-1.071,0.332-1.69,0.332c-0.402,0-0.796-0.041-1.185-0.122c-0.389-0.081-0.712-0.166-0.969-0.254
		c-0.257-0.088-0.421-0.146-0.492-0.173v-2.435h1.028l0.257,1.458C1039.319,262.492,1039.396,262.529,1039.517,262.586z"/>
	<path fill="#66625D" d="M1046.261,253.46c0.34,0.307,0.51,0.833,0.51,1.579v2.051c0,0.399,0.09,0.706,0.271,0.923
		s0.5,0.325,0.958,0.325v0.844c-0.458,0-0.777,0.108-0.958,0.322c-0.181,0.215-0.271,0.523-0.271,0.925v2.531
		c0,0.742-0.17,1.268-0.51,1.576c-0.34,0.308-0.901,0.463-1.682,0.463H1044v-0.779c0.412,0,0.732-0.038,0.961-0.114
		c0.229-0.076,0.391-0.204,0.485-0.384c0.095-0.18,0.142-0.434,0.142-0.762v-2.531c0-0.406,0.101-0.752,0.302-1.037
		c0.202-0.285,0.5-0.496,0.895-0.633c-0.395-0.137-0.693-0.347-0.895-0.63c-0.202-0.283-0.302-0.63-0.302-1.04v-2.051
		c0-0.328-0.047-0.582-0.142-0.762c-0.094-0.18-0.256-0.308-0.485-0.384c-0.229-0.076-0.549-0.114-0.961-0.114V253h0.579
		C1045.361,253,1045.921,253.153,1046.261,253.46z"/>
	<path fill="#66625D" d="M1037.039,253.894c-0.229,0.076-0.391,0.204-0.485,0.384c-0.094,0.18-0.142,0.433-0.142,0.762v2.051
		c0,0.406-0.101,0.752-0.302,1.037c-0.202,0.285-0.5,0.496-0.895,0.633c0.395,0.137,0.693,0.347,0.895,0.63
		c0.202,0.283,0.302,0.63,0.302,1.04v2.531c0,0.328,0.047,0.582,0.142,0.762c0.094,0.179,0.256,0.308,0.485,0.384
		c0.229,0.076,0.549,0.114,0.961,0.114V265h-0.58c-0.781,0-1.341-0.155-1.682-0.463c-0.34-0.309-0.51-0.834-0.51-1.576v-2.531
		c0-0.398-0.09-0.706-0.271-0.923c-0.181-0.217-0.5-0.325-0.958-0.325v-0.844c0.458,0,0.777-0.107,0.958-0.322
		c0.18-0.215,0.271-0.523,0.271-0.926v-2.051c0-0.742,0.17-1.268,0.51-1.576c0.34-0.309,0.901-0.463,1.682-0.463h0.58v0.779
		C1037.588,253.779,1037.268,253.817,1037.039,253.894z"/>
</g>
<g id="_x33_2">
	<rect x="1033" y="211" fill="none" width="32" height="32"/>
	<path fill="#AD297E" d="M1046.034,234.171c0.243,0.113,0.573,0.219,0.991,0.318c0.418,0.1,0.874,0.15,1.367,0.15
		c1.028,0,1.941-0.263,2.74-0.788c0.798-0.524,1.198-1.252,1.198-2.184c0-0.597-0.171-1.097-0.514-1.499
		c-0.343-0.403-0.767-0.731-1.273-0.984c-0.506-0.253-1.202-0.556-2.088-0.909c-1.162-0.443-2.1-0.859-2.815-1.248
		c-0.715-0.389-1.325-0.95-1.831-1.683c-0.506-0.733-0.759-1.674-0.759-2.822c0-1.836,0.579-3.215,1.737-4.138
		c1.158-0.923,2.61-1.384,4.357-1.384c0.719,0,1.48,0.084,2.282,0.251c0.803,0.168,1.488,0.34,2.056,0.516
		c0.569,0.176,0.928,0.292,1.079,0.346l-0.125,4.722h-1.668l-0.878-2.971c-0.067-0.018-0.23-0.07-0.489-0.156
		c-0.259-0.086-0.594-0.165-1.003-0.238c-0.41-0.072-0.82-0.109-1.23-0.109c-1.095,0-1.939,0.265-2.533,0.794
		c-0.594,0.529-0.891,1.165-0.891,1.906c0,0.597,0.171,1.097,0.514,1.499c0.343,0.403,0.771,0.735,1.285,0.997
		c0.514,0.262,1.236,0.57,2.164,0.922c1.111,0.426,2.022,0.828,2.733,1.208c0.71,0.38,1.314,0.916,1.812,1.608
		c0.497,0.692,0.746,1.567,0.746,2.625c0,1.33-0.301,2.454-0.903,3.372c-0.602,0.918-1.41,1.599-2.426,2.042
		c-1.016,0.443-2.142,0.665-3.379,0.665c-0.803,0-1.593-0.082-2.37-0.244c-0.777-0.163-1.423-0.333-1.937-0.509
		c-0.514-0.176-0.842-0.292-0.984-0.346v-4.871h2.056l0.514,2.917C1045.638,233.983,1045.792,234.058,1046.034,234.171z"/>
	<path fill="#66625D" d="M1059.523,215.92c0.68,0.613,1.021,1.666,1.021,3.158v4.101c0,0.797,0.18,1.412,0.541,1.846
		c0.361,0.433,1,0.65,1.915,0.65v1.687c-0.915,0-1.554,0.215-1.915,0.645c-0.361,0.429-0.541,1.046-0.541,1.851v5.063
		c0,1.484-0.34,2.535-1.021,3.153c-0.68,0.617-1.802,0.926-3.364,0.926H1055v-1.559c0.823,0,1.463-0.076,1.921-0.229
		c0.458-0.152,0.781-0.409,0.97-0.767c0.189-0.359,0.284-0.867,0.284-1.524v-5.063c0-0.812,0.201-1.504,0.604-2.074
		c0.403-0.57,1-0.993,1.789-1.266c-0.789-0.273-1.386-0.693-1.789-1.259c-0.403-0.567-0.604-1.26-0.604-2.08v-4.101
		c0-0.657-0.094-1.164-0.284-1.524c-0.189-0.36-0.512-0.616-0.97-0.767c-0.458-0.153-1.098-0.229-1.921-0.229V215h1.159
		C1057.721,215,1058.843,215.307,1059.523,215.92z"/>
	<path fill="#66625D" d="M1041.078,216.788c-0.458,0.152-0.781,0.408-0.97,0.767c-0.189,0.359-0.284,0.867-0.284,1.524v4.101
		c0,0.813-0.202,1.504-0.604,2.074c-0.403,0.571-1,0.993-1.789,1.266c0.79,0.273,1.386,0.693,1.789,1.26
		c0.403,0.566,0.604,1.26,0.604,2.08v5.063c0,0.656,0.095,1.164,0.284,1.524c0.189,0.359,0.512,0.615,0.97,0.767
		c0.458,0.153,1.098,0.229,1.922,0.229V239h-1.16c-1.562,0-2.683-0.309-3.364-0.926c-0.68-0.617-1.021-1.668-1.021-3.153v-5.063
		c0-0.797-0.181-1.412-0.541-1.845c-0.361-0.434-1-0.651-1.915-0.651v-1.687c0.915,0,1.554-0.215,1.915-0.645
		c0.361-0.43,0.541-1.047,0.541-1.851v-4.101c0-1.485,0.34-2.535,1.021-3.153c0.681-0.617,1.802-0.926,3.364-0.926h1.16v1.559
		C1042.177,216.559,1041.536,216.635,1041.078,216.788z"/>
</g>
<g id="_x36_4">
	<rect x="1033" y="138" fill="none" width="64" height="64"/>
	<path fill="#AD297E" d="M1059.068,184.342c0.485,0.226,1.146,0.438,1.981,0.637c0.836,0.199,1.747,0.299,2.735,0.299
		c2.056,0,3.882-0.525,5.479-1.575c1.596-1.049,2.395-2.505,2.395-4.369c0-1.194-0.343-2.193-1.029-2.997
		c-0.686-0.806-1.534-1.462-2.546-1.969c-1.011-0.506-2.404-1.112-4.175-1.818c-2.324-0.886-4.2-1.718-5.63-2.496
		c-1.429-0.779-2.651-1.9-3.662-3.366c-1.012-1.465-1.517-3.347-1.517-5.645c0-3.672,1.158-6.43,3.474-8.276
		c2.315-1.846,5.22-2.769,8.715-2.769c1.438,0,2.96,0.168,4.565,0.502c1.606,0.335,2.975,0.68,4.112,1.032
		c1.137,0.353,1.857,0.584,2.158,0.692l-0.251,9.443h-3.336l-1.756-5.943c-0.133-0.036-0.46-0.14-0.978-0.312
		c-0.517-0.173-1.187-0.33-2.006-0.475c-0.82-0.145-1.64-0.217-2.459-0.217c-2.19,0-3.878,0.529-5.065,1.588
		c-1.187,1.058-1.781,2.329-1.781,3.812c0,1.195,0.343,2.194,1.029,2.998c0.686,0.805,1.542,1.47,2.57,1.995
		c1.029,0.524,2.471,1.139,4.327,1.845c2.223,0.851,4.045,1.656,5.467,2.416c1.42,0.759,2.628,1.831,3.624,3.216
		c0.994,1.383,1.492,3.134,1.492,5.25c0,2.66-0.602,4.908-1.806,6.744c-1.203,1.836-2.82,3.198-4.852,4.084
		c-2.032,0.885-4.284,1.33-6.759,1.33c-1.606,0-3.185-0.163-4.741-0.489c-1.555-0.326-2.846-0.665-3.874-1.018
		c-1.029-0.353-1.684-0.584-1.968-0.692v-9.742h4.112l1.029,5.833C1058.275,183.966,1058.584,184.115,1059.068,184.342z"/>
	<path fill="#66625D" d="M1086.046,147.84c1.361,1.226,2.041,3.331,2.041,6.317v8.203c0,1.594,0.36,2.825,1.083,3.692
		c0.722,0.867,2,1.301,3.83,1.301v3.374c-1.83,0-3.108,0.43-3.83,1.29c-0.722,0.859-1.083,2.093-1.083,3.702v10.125
		c0,2.968-0.681,5.07-2.041,6.305c-1.361,1.233-3.603,1.852-6.729,1.852H1077v-3.118c1.646,0,2.927-0.152,3.842-0.457
		c0.915-0.305,1.562-0.817,1.94-1.535c0.379-0.719,0.568-1.735,0.568-3.047v-10.125c0-1.624,0.403-3.007,1.209-4.147
		c0.807-1.14,2-1.985,3.578-2.532c-1.579-0.546-2.772-1.387-3.578-2.519c-0.807-1.133-1.209-2.52-1.209-4.16v-8.203
		c0-1.313-0.188-2.329-0.568-3.047c-0.378-0.719-1.025-1.231-1.94-1.535c-0.916-0.306-2.196-0.457-3.842-0.457V146h2.317
		C1082.443,146,1084.685,146.613,1086.046,147.84z"/>
	<path fill="#66625D" d="M1049.157,149.575c-0.916,0.303-1.562,0.816-1.94,1.535c-0.378,0.718-0.567,1.734-0.567,3.047v8.203
		c0,1.625-0.403,3.007-1.209,4.148c-0.807,1.141-1.999,1.985-3.578,2.531c1.579,0.547,2.772,1.387,3.578,2.52
		c0.806,1.132,1.209,2.519,1.209,4.159v10.125c0,1.313,0.19,2.328,0.567,3.047c0.378,0.717,1.024,1.23,1.94,1.535
		c0.916,0.306,2.196,0.457,3.843,0.457V194h-2.319c-3.124,0-5.366-0.619-6.727-1.852c-1.361-1.235-2.041-3.337-2.041-6.305v-10.125
		c0-1.593-0.361-2.824-1.083-3.69c-0.722-0.868-1.999-1.301-3.83-1.301v-3.374c1.831,0,3.108-0.43,3.83-1.29
		c0.722-0.86,1.083-2.094,1.083-3.703v-8.203c0-2.97,0.681-5.071,2.041-6.305c1.361-1.234,3.603-1.852,6.727-1.852H1053v3.118
		C1051.353,149.118,1050.073,149.269,1049.157,149.575z"/>
</g>
<g id="_x31_28">
	<rect x="1033" y="1" fill="none" width="128" height="128"/>
	<path fill="#AD297E" d="M1085.137,93.684c0.971,0.452,2.291,0.875,3.963,1.274c1.672,0.398,3.495,0.599,5.469,0.599
		c4.112,0,7.764-1.051,10.959-3.15c3.192-2.097,4.79-5.009,4.79-8.738c0-2.388-0.686-4.386-2.057-5.995
		c-1.371-1.611-3.067-2.923-5.091-3.937c-2.023-1.012-4.808-2.224-8.351-3.636c-4.649-1.772-8.4-3.436-11.26-4.991
		c-2.859-1.558-5.301-3.8-7.324-6.731c-2.024-2.931-3.034-6.694-3.034-11.289c0-7.344,2.315-12.861,6.948-16.552
		c4.631-3.692,10.44-5.537,17.429-5.537c2.876,0,5.92,0.335,9.129,1.004c3.211,0.67,5.95,1.359,8.225,2.064
		c2.275,0.706,3.714,1.167,4.315,1.384l-0.501,18.886h-6.671l-3.513-11.886c-0.266-0.072-0.92-0.28-1.955-0.624
		c-1.034-0.345-2.374-0.66-4.011-0.95c-1.64-0.29-3.28-0.435-4.918-0.435c-4.38,0-7.755,1.059-10.13,3.176
		c-2.374,2.115-3.562,4.658-3.562,7.624c0,2.389,0.686,4.388,2.057,5.997c1.371,1.611,3.084,2.941,5.141,3.99
		c2.057,1.048,4.943,2.279,8.655,3.689c4.445,1.703,8.09,3.311,10.933,4.832c2.841,1.518,5.257,3.662,7.248,6.432
		c1.988,2.766,2.983,6.267,2.983,10.5c0,5.32-1.203,9.815-3.612,13.488c-2.407,3.671-5.641,6.396-9.704,8.168
		c-4.063,1.77-8.568,2.66-13.517,2.66c-3.212,0-6.37-0.327-9.482-0.977c-3.109-0.652-5.692-1.33-7.749-2.035
		c-2.057-0.705-3.368-1.167-3.936-1.384V81.12h8.225l2.057,11.667C1083.55,92.932,1084.167,93.23,1085.137,93.684z"/>
	<path fill="#66625D" d="M1139.092,20.681c2.721,2.452,4.083,6.663,4.083,12.633v16.405c0,3.189,0.721,5.65,2.165,7.383
		c1.444,1.733,4,2.602,7.66,2.602v6.749c-3.661,0-6.216,0.86-7.66,2.579c-1.444,1.718-2.165,4.186-2.165,7.404v20.251
		c0,5.937-1.361,10.14-4.083,12.61c-2.721,2.466-7.207,3.703-13.457,3.703H1121v-6.235c3.293,0,5.853-0.303,7.685-0.914
		c1.83-0.609,3.124-1.635,3.879-3.07c0.758-1.437,1.135-3.469,1.135-6.094V76.436c0-3.248,0.805-6.015,2.418-8.295
		c1.613-2.281,4-3.97,7.157-5.063c-3.157-1.093-5.544-2.773-7.157-5.038c-1.613-2.267-2.418-5.04-2.418-8.32V33.314
		c0-2.627-0.377-4.658-1.135-6.094c-0.755-1.439-2.049-2.463-3.879-3.07c-1.832-0.611-4.392-0.915-7.685-0.915V17h4.635
		C1131.885,17,1136.37,18.227,1139.092,20.681z"/>
	<path fill="#66625D" d="M1065.313,24.15c-1.832,0.607-3.124,1.631-3.879,3.07c-0.755,1.437-1.135,3.467-1.135,6.094v16.405
		c0,3.25-0.807,6.015-2.418,8.296c-1.613,2.283-3.998,3.97-7.156,5.063c3.158,1.093,5.543,2.774,7.156,5.04
		c1.612,2.265,2.418,5.039,2.418,8.318v20.251c0,2.625,0.38,4.657,1.135,6.094c0.755,1.435,2.047,2.46,3.879,3.07
		c1.832,0.611,4.393,0.914,7.687,0.914V113h-4.638c-6.249,0-10.732-1.237-13.455-3.703c-2.721-2.47-4.082-6.673-4.082-12.61V76.436
		c0-3.186-0.722-5.647-2.165-7.381c-1.444-1.735-3.998-2.603-7.66-2.603v-6.749c3.662,0,6.215-0.86,7.66-2.579
		c1.443-1.719,2.165-4.187,2.165-7.406V33.314c0-5.939,1.361-10.142,4.082-12.61c2.722-2.468,7.206-3.704,13.455-3.704H1073v6.235
		C1069.706,23.235,1067.145,23.539,1065.313,24.15z"/>
</g>
<g id="_x31_024">
	<rect fill="none" width="1024" height="1024"/>
	<path fill="#AD297E" d="M417.094,741.472c7.765,3.617,18.33,7.004,31.703,10.192c13.373,3.188,27.958,4.79,43.753,4.79
		c32.894,0,62.114-8.408,87.67-25.202c25.536-16.778,38.319-40.074,38.319-69.902c0-19.101-5.486-35.091-16.457-47.959
		c-10.972-12.89-24.538-23.385-40.731-31.496c-16.182-8.094-38.461-17.79-66.806-29.089c-37.189-14.179-67.203-27.487-90.082-39.932
		c-22.869-12.46-42.41-30.4-58.593-53.851c-16.192-23.445-24.274-53.553-24.274-90.313c0-58.752,18.523-102.884,55.58-132.414
		C414.224,206.762,460.695,192,516.611,192c23.011,0,47.356,2.682,73.034,8.029c25.688,5.363,47.6,10.875,65.798,16.513
		c18.198,5.644,29.709,9.338,34.522,11.073l-4.01,151.091h-53.371l-28.1-95.087c-2.127-0.573-7.358-2.241-15.643-4.989
		c-8.274-2.764-18.991-5.28-32.09-7.604c-13.119-2.319-26.238-3.48-39.347-3.48c-35.041,0-62.043,8.468-81.044,25.411
		c-18.992,16.921-28.497,37.266-28.497,60.993c0,19.112,5.486,35.108,16.457,47.976c10.972,12.884,24.671,23.528,41.128,31.919
		c16.457,8.386,39.54,18.231,69.238,29.514c35.56,13.622,64.719,26.49,87.466,38.659c22.726,12.147,42.054,29.299,57.981,51.456
		C696.041,575.602,704,603.613,704,637.476c0,42.563-9.628,78.524-28.894,107.905c-19.256,29.37-45.128,51.169-77.635,65.343
		C564.964,824.886,528.925,832,489.335,832c-25.699,0-50.959-2.616-75.854-7.819c-24.874-5.214-45.534-10.644-61.991-16.282
		c-16.457-5.643-26.94-9.338-31.49-11.073V640.961h65.798l16.457,93.336C404.403,735.459,409.339,737.843,417.094,741.472z"/>
	<path fill="#66625D" d="M848.735,157.447c21.771,19.617,32.66,53.301,32.66,101.066v131.24c0,25.509,5.767,45.197,17.322,59.064
		c11.555,13.867,31.997,20.815,61.283,20.815v53.99c-29.286,0-49.727,6.882-61.283,20.635
		c-11.555,13.744-17.322,33.484-17.322,59.231v162.004c0,47.494-10.89,81.121-32.66,100.88C826.964,886.103,791.082,896,741.078,896
		H704v-49.882c26.341,0,46.823-2.425,61.477-7.314c14.643-4.875,24.992-13.078,31.035-24.558c6.064-11.499,9.08-27.754,9.08-48.754
		V603.488c0-25.985,6.442-48.117,19.347-66.36c12.905-18.247,31.997-31.762,57.254-40.508
		c-25.257-8.741-44.349-22.185-57.254-40.304c-12.905-18.133-19.347-40.323-19.347-66.564v-131.24c0-21.015-3.016-37.26-9.08-48.755
		c-6.043-11.508-16.392-19.702-31.035-24.557c-14.653-4.889-35.135-7.319-61.477-7.319V128h37.078
		C791.082,128,826.964,137.816,848.735,157.447z"/>
	<path fill="#66625D" d="M258.508,185.2c-14.652,4.855-24.989,13.049-31.032,24.557c-6.043,11.495-9.08,27.739-9.08,48.755v131.24
		c0,26.003-6.452,48.117-19.345,66.364c-12.904,18.261-31.983,31.763-57.249,40.503c25.266,8.746,44.345,22.189,57.249,40.322
		c12.894,18.119,19.345,40.309,19.345,66.545v162.004c0,21.001,3.037,37.255,9.08,48.754c6.043,11.48,16.38,19.683,31.032,24.558
		c14.652,4.889,35.143,7.314,61.492,7.314V896h-37.106c-49.989,0-85.858-9.897-107.637-29.628
		c-21.769-19.759-32.658-53.386-32.658-100.88V603.488c0-25.49-5.777-45.178-17.321-59.045
		c-11.554-13.882-31.983-20.82-61.278-20.82v-53.99c29.294,0,49.724-6.877,61.278-20.635c11.544-13.753,17.321-33.498,17.321-59.245
		v-131.24c0-47.513,10.89-81.135,32.658-100.881C197.036,137.887,232.905,128,282.894,128H320v49.881
		C293.651,177.881,273.16,180.312,258.508,185.2z"/>
</g>
</svg>
