<?xml version="1.0" encoding="utf-8"?>
<!-- Generator: Adobe Illustrator 16.0.0, SVG Export Plug-In . SVG Version: 6.00 Build 0)  -->
<!DOCTYPE svg PUBLIC "-//W3C//DTD SVG 1.1//EN" "http://www.w3.org/Graphics/SVG/1.1/DTD/svg11.dtd">
<svg version="1.1" xmlns="http://www.w3.org/2000/svg" xmlns:xlink="http://www.w3.org/1999/xlink" x="0px" y="0px" width="16px"
	 height="16px" viewBox="0 0 16 16" enable-background="new 0 0 16 16" xml:space="preserve">
<g id="_x31_024">
</g>
<g id="_x33_2">
</g>
<g id="_x31_6">
	<g>
		<path fill="#231F20" d="M3.147,2.462c-0.236,0.083-0.403,0.22-0.502,0.414C2.547,3.07,2.499,3.343,2.499,3.697v2.209
			c0,0.438-0.104,0.81-0.313,1.117C1.978,7.332,1.668,7.559,1.259,7.706C1.668,7.853,1.978,8.08,2.186,8.385
			C2.395,8.69,2.499,9.063,2.499,9.505v2.727c0,0.354,0.048,0.627,0.146,0.821s0.266,0.332,0.502,0.414
			c0.237,0.082,0.568,0.123,0.996,0.123v0.84H3.543c-0.81,0-1.391-0.167-1.742-0.499c-0.352-0.333-0.528-0.899-0.528-1.699V9.505
			c0-0.429-0.094-0.761-0.28-0.995S0.474,8.161,0,8.161V7.251c0.474,0,0.806-0.116,0.992-0.347c0.187-0.232,0.28-0.564,0.28-0.998
			V3.697c0-0.8,0.177-1.366,0.528-1.699C2.152,1.667,2.733,1.5,3.543,1.5h0.601v0.84C3.716,2.34,3.385,2.38,3.147,2.462z"/>
		<g>
			<g>
				<path fill="#800000" d="M10.092,6.386V5.473l3.02-0.056v0.969l-0.628,0.139l-1.567,5.053H9.112L8.179,8.67L7.965,7.779
					L7.671,9.021l-0.864,2.557H5.015l-1.608-5.03L2.888,6.386V5.473l3.095-0.056v0.969L5.239,6.525l0.778,3.203l1.25-4.117
					l1.557-0.25l1.291,4.367l0.691-3.169L10.092,6.386z"/>
			</g>
		</g>
		<path fill="#231F20" d="M14.199,1.996c0.352,0.331,0.528,0.898,0.528,1.702v2.209c0,0.429,0.094,0.761,0.28,0.995
			c0.187,0.233,0.519,0.35,0.992,0.35v0.909c-0.474,0-0.806,0.116-0.992,0.347c-0.187,0.232-0.28,0.564-0.28,0.998v2.727
			c0,0.8-0.177,1.366-0.528,1.699c-0.352,0.332-0.933,0.499-1.742,0.499h-0.601v-0.84c0.427,0,0.759-0.041,0.996-0.123
			c0.236-0.083,0.403-0.221,0.502-0.414s0.146-0.467,0.146-0.821V9.505c0-0.438,0.104-0.81,0.313-1.118
			c0.208-0.307,0.518-0.535,0.927-0.682c-0.409-0.147-0.719-0.374-0.927-0.679c-0.209-0.305-0.313-0.678-0.313-1.12V3.697
			c0-0.354-0.048-0.627-0.146-0.821c-0.099-0.194-0.266-0.332-0.502-0.414C12.615,2.38,12.283,2.34,11.856,2.34V1.5h0.601
			C13.267,1.5,13.848,1.666,14.199,1.996z"/>
	</g>
</g>
</svg>
