<?xml version="1.0" encoding="utf-8"?>
<!-- Generator: Adobe Illustrator 16.0.0, SVG Export Plug-In . SVG Version: 6.00 Build 0)  -->
<!DOCTYPE svg PUBLIC "-//W3C//DTD SVG 1.1//EN" "http://www.w3.org/Graphics/SVG/1.1/DTD/svg11.dtd">
<svg version="1.1" xmlns="http://www.w3.org/2000/svg" xmlns:xlink="http://www.w3.org/1999/xlink" x="0px" y="0px" width="256px"
	 height="256px" viewBox="0 0 256 256" enable-background="new 0 0 256 256" xml:space="preserve">
<g id="_x32_56">
	<g>
		<path fill="#231F20" d="M54.005,41.19c-3.616,1.295-6.168,3.469-7.66,6.524c-1.493,3.055-2.239,7.371-2.239,12.949v34.863
			c0,6.906-1.592,12.783-4.776,17.631c-3.184,4.848-7.895,8.434-14.128,10.758c6.233,2.324,10.944,5.894,14.128,10.708
			c3.184,4.814,4.776,10.708,4.776,17.681v43.031c0,5.578,0.746,9.895,2.239,12.949c1.492,3.052,4.044,5.229,7.66,6.524
			c3.615,1.295,8.671,1.941,15.173,1.941V230h-9.153c-12.337,0-21.192-2.626-26.565-7.869c-5.373-5.247-8.059-14.181-8.059-26.795
			v-43.031c0-6.773-1.428-12.003-4.278-15.688c-2.853-3.686-7.895-5.528-15.123-5.528v-14.344c7.229,0,12.271-1.827,15.123-5.479
			c2.851-3.652,4.278-8.899,4.278-15.739V60.664c0-12.617,2.686-21.549,8.059-26.795C38.833,28.623,47.688,26,60.025,26h9.153
			v13.248C62.676,39.248,57.62,39.896,54.005,41.19z"/>
		<g>
			<g>
				<path fill="#800000" d="M159.904,103.086V88.672l46.055-0.879v15.293l-9.58,2.197L172.473,185h-27.51l-14.238-45.879
					l-3.252-14.063l-4.482,19.6L109.807,185H82.473l-24.521-79.365l-7.91-2.549V88.672l47.197-0.879v15.293L85.9,105.283
					l11.865,50.537l19.072-64.951l23.73-3.955l19.688,68.906l10.547-50.01L159.904,103.086z"/>
			</g>
		</g>
		<path fill="#231F20" d="M222.54,33.819c5.372,5.213,8.059,14.162,8.059,26.845v34.863c0,6.774,1.428,12.003,4.279,15.689
			c2.849,3.685,7.893,5.528,15.122,5.528v14.344c-7.229,0-12.273,1.826-15.122,5.479c-2.852,3.652-4.279,8.898-4.279,15.738v43.031
			c0,12.614-2.687,21.548-8.059,26.795c-5.372,5.243-14.228,7.869-26.563,7.869h-9.154v-13.249c6.501,0,11.556-0.646,15.173-1.941
			c3.615-1.295,6.169-3.473,7.66-6.524c1.493-3.055,2.239-7.371,2.239-12.949v-43.031c0-6.906,1.591-12.783,4.775-17.631
			c3.184-4.848,7.893-8.434,14.128-10.758c-6.235-2.324-10.944-5.894-14.128-10.708c-3.185-4.815-4.775-10.709-4.775-17.682V60.664
			c0-5.578-0.746-9.895-2.239-12.949c-1.491-3.055-4.045-5.229-7.66-6.524c-3.617-1.295-8.672-1.943-15.173-1.943V26h9.154
			C208.313,26,217.168,28.606,222.54,33.819z"/>
	</g>
</g>
<g id="_x33_2">
</g>
<g id="_x31_6">
</g>
</svg>
