<?xml version="1.0" encoding="utf-8"?>
<!-- Generator: Adobe Illustrator 16.0.0, SVG Export Plug-In . SVG Version: 6.00 Build 0)  -->
<!DOCTYPE svg PUBLIC "-//W3C//DTD SVG 1.1//EN" "http://www.w3.org/Graphics/SVG/1.1/DTD/svg11.dtd">
<svg version="1.1" xmlns="http://www.w3.org/2000/svg" xmlns:xlink="http://www.w3.org/1999/xlink" x="0px" y="0px" width="1024px"
	 height="1024px" viewBox="0 0 1024 1024" enable-background="new 0 0 1024 1024" xml:space="preserve">
<g id="_x31_024">
	<g>
		<path fill="#231F20" d="M216.02,164.762c-14.463,5.18-24.674,13.877-30.641,26.098c-5.971,12.219-8.955,29.484-8.955,51.797
			v139.451c0,27.625-6.369,51.133-19.104,70.525c-12.736,19.391-31.578,33.736-56.512,43.031
			c24.934,9.295,43.775,23.574,56.512,42.832c12.734,19.258,19.104,42.832,19.104,70.723v172.125
			c0,22.313,2.984,39.578,8.955,51.797c5.967,12.207,16.178,20.918,30.641,26.098c14.461,5.18,34.686,7.766,60.691,7.766V920H240.1
			c-49.35,0-84.77-10.504-106.26-31.477c-21.49-20.988-32.234-56.723-32.234-107.18V609.219c0-27.094-5.711-48.012-17.113-62.754
			C73.082,531.723,52.914,524.352,24,524.352v-57.375c28.914,0,49.082-7.307,60.492-21.914
			c11.402-14.609,17.113-35.596,17.113-62.955V242.656c0-50.469,10.744-86.197,32.234-107.182C155.33,114.492,190.75,104,240.1,104
			h36.611v52.99C250.705,156.99,230.48,159.582,216.02,164.762z"/>
		<g>
			<g>
				<path fill="#800000" d="M639.617,412.344v-57.656l184.219-3.516v61.172l-38.32,8.789L689.891,740H579.852l-56.953-183.516
					l-13.008-56.25l-17.93,78.398L439.227,740H329.891l-98.086-317.461l-31.641-10.195v-57.656l188.789-3.516v61.172l-45.352,8.789
					l47.461,202.148l76.289-259.805l94.922-15.82l78.75,275.625l42.188-200.039L639.617,412.344z"/>
			</g>
		</g>
		<path fill="#231F20" d="M890.16,135.275c21.488,20.852,32.234,56.646,32.234,107.381v139.451c0,27.098,5.711,48.014,17.117,62.756
			c11.395,14.74,31.57,22.113,60.488,22.113v57.375c-28.918,0-49.094,7.305-60.488,21.914
			c-11.406,14.609-17.117,35.594-17.117,62.953v172.125c0,50.457-10.746,86.191-32.234,107.18
			C868.672,909.496,833.25,920,783.906,920h-36.617v-52.996c26.004,0,46.223-2.586,60.691-7.766
			c14.461-5.18,24.676-13.891,30.641-26.098c5.973-12.219,8.957-29.484,8.957-51.797V609.219c0-27.625,6.363-51.133,19.102-70.523
			c12.734-19.391,31.57-33.736,56.512-43.031c-24.941-9.295-43.777-23.574-56.512-42.83c-12.738-19.26-19.102-42.836-19.102-70.727
			V242.656c0-22.313-2.984-39.578-8.957-51.797c-5.965-12.221-16.18-20.918-30.641-26.098c-14.469-5.18-34.688-7.771-60.691-7.771
			V104h36.617C833.25,104,868.672,114.426,890.16,135.275z"/>
	</g>
</g>
<g id="_x33_2">
</g>
<g id="_x31_6">
</g>
</svg>
