<svg xmlns="http://www.w3.org/2000/svg" viewBox="0 0 204.91 159.71"><defs><style>.cls-1{fill:#892164;}.cls-2{fill:#231f20;stroke:#231f20;stroke-miterlimit:10;stroke-width:2px;}</style></defs><title>Spoofax Logo</title><g id="Logo"><path class="cls-1" d="M88.53,143.07a39.2,39.2,0,0,0,6.84,2,43.55,43.55,0,0,0,9.44,1,35.65,35.65,0,0,0,18.9-5Q132,136,132,127.1a13.6,13.6,0,0,0-3.55-9.56,27.39,27.39,0,0,0-8.79-6.27q-5.23-2.43-14.4-5.8a171.58,171.58,0,0,1-19.43-8A35.7,35.7,0,0,1,73.17,86.78q-5.23-7-5.23-18,0-17.56,12-26.39T110,33.56a83,83,0,0,1,15.75,1.6q8.31,1.61,14.19,3.29t7.45,2.21l-.87,30.11H135l-6.06-18.95c-.45-.12-1.58-.45-3.37-1a58.89,58.89,0,0,0-15.4-2.21q-11.34,0-17.48,5.07T86.54,65.83a13.62,13.62,0,0,0,3.55,9.57A28.38,28.38,0,0,0,99,81.76q5.33,2.51,14.93,5.88a175.9,175.9,0,0,1,18.86,7.71,35.64,35.64,0,0,1,12.51,10.25q5.15,6.62,5.15,16.74,0,12.74-6.24,21.51a36.92,36.92,0,0,1-16.74,13,62,62,0,0,1-23.32,4.24,85.82,85.82,0,0,1-16.36-1.56,121,121,0,0,1-13.36-3.24c-3.55-1.13-5.81-1.86-6.8-2.21V123H81.78l3.55,18.6C85.8,141.87,86.86,142.35,88.53,143.07Z" transform="translate(-6.55 -17.48)"/><path class="cls-2" d="M44.7,30.23a10,10,0,0,0-5.93,5Q37,38.81,37,45.28v27a24.22,24.22,0,0,1-3.7,13.63,21.63,21.63,0,0,1-10.93,8.32,21.62,21.62,0,0,1,10.93,8.28A24.14,24.14,0,0,1,37,116.12v33.27q0,6.47,1.73,10a10,10,0,0,0,5.93,5Q48.9,166,56.45,166v10.24H49.36q-14.32,0-20.56-6.08t-6.24-20.72V116.12c0-5.23-1.1-9.28-3.31-12.12s-6.11-4.28-11.7-4.28V88.63q8.39,0,11.7-4.23t3.31-12.17V45.28q0-14.64,6.24-20.71t20.56-6.09h7.09V28.72Q48.89,28.72,44.7,30.23Z" transform="translate(-6.55 -17.48)"/><path class="cls-2" d="M189.2,24.53q6.24,6,6.24,20.75v27q0,7.86,3.31,12.13t11.7,4.27V99.72q-8.38,0-11.7,4.24t-3.31,12.16v33.27q0,14.63-6.24,20.72t-20.56,6.08h-7.08V166q7.55,0,11.74-1.51a10,10,0,0,0,5.93-5c1.16-2.36,1.73-5.7,1.73-10V116.12a24.18,24.18,0,0,1,3.7-13.62,21.57,21.57,0,0,1,10.93-8.32,21.73,21.73,0,0,1-10.93-8.28A24.17,24.17,0,0,1,181,72.23V45.28c0-4.31-.57-7.65-1.73-10a10,10,0,0,0-5.93-5q-4.2-1.52-11.74-1.51V18.48h7.08Q183,18.48,189.2,24.53Z" transform="translate(-6.55 -17.48)"/></g></svg>