<?xml version="1.0" encoding="utf-8"?>
<!-- Generator: Adobe Illustrator 16.0.0, SVG Export Plug-In . SVG Version: 6.00 Build 0)  -->
<!DOCTYPE svg PUBLIC "-//W3C//DTD SVG 1.1//EN" "http://www.w3.org/Graphics/SVG/1.1/DTD/svg11.dtd">
<svg version="1.1" xmlns="http://www.w3.org/2000/svg" xmlns:xlink="http://www.w3.org/1999/xlink" x="0px" y="0px"
	 width="422.667px" height="97.334px" viewBox="0 0 422.667 97.334" enable-background="new 0 0 422.667 97.334"
	 xml:space="preserve">
<g id="Name">
	<g>
		<path fill="#231F20" d="M148.875,64.895c1.31,0.219,2.862,0.328,4.659,0.328c5.929,0,8.906-2.078,8.933-6.236
			c0-1.694-0.727-2.971-2.176-3.831c-1.45-0.86-3.703-1.765-6.757-2.715c-2.799-0.899-5.063-1.765-6.797-2.599
			c-1.732-0.833-3.215-2.042-4.447-3.619c-1.231-1.579-1.848-3.625-1.848-6.141c0-3.953,1.342-6.995,4.024-9.125
			c2.681-2.13,6.154-3.196,10.414-3.196c1.849,0,3.768,0.173,5.757,0.52c1.988,0.346,3.684,0.713,5.083,1.098
			c1.398,0.384,2.276,0.642,2.636,0.77l-0.23,10.627h-5.12l-1.271-6.162c-0.154-0.051-0.495-0.153-1.02-0.307
			c-0.526-0.154-1.265-0.294-2.215-0.423c-0.949-0.128-2.002-0.193-3.156-0.193c-4.674,0-7.008,1.759-7.008,5.275
			c0,1.693,0.751,2.996,2.252,3.908c1.502,0.911,3.767,1.868,6.796,2.868c2.721,0.95,4.953,1.829,6.699,2.638
			s3.221,1.977,4.429,3.503c1.206,1.527,1.81,3.445,1.81,5.757c0,4.363-1.643,7.7-4.929,10.01s-7.419,3.465-12.398,3.465
			c-2.156,0-4.157-0.129-6.006-0.384c-1.849-0.256-3.325-0.513-4.429-0.771c-1.104-0.257-1.783-0.448-2.04-0.577V57.715h5.544
			l0.848,6.776C146.911,64.544,147.565,64.679,148.875,64.895z"/>
		<path fill="#231F20" d="M198.568,27.76c5.57,0,9.787,1.842,12.649,5.525c2.86,3.683,4.292,8.683,4.292,14.997
			c0,6.982-1.783,12.533-5.351,16.652c-3.568,4.12-8.882,6.18-15.94,6.18c-2.26,0-4.62-0.359-7.085-1.079v12.514l8.278,1.579v4.35
			h-22.485v-4.35l6.313-1.579V34.845l-6.699-1.58v-4.313l13.399-0.385l0.655,4.391C190.316,29.493,194.308,27.76,198.568,27.76z
			 M188.192,63.759c0.603,0.232,1.526,0.47,2.772,0.713c1.245,0.244,2.728,0.365,4.447,0.365c7.879,0,11.82-5.262,11.82-15.785
			c0-4.571-0.854-8.209-2.561-10.916c-1.708-2.709-4.269-4.062-7.681-4.062c-2.105,0-3.896,0.403-5.371,1.212
			c-1.477,0.808-2.595,1.688-3.35,2.638c-0.759,0.95-1.137,1.501-1.137,1.656v23.678C187.236,63.362,187.588,63.529,188.192,63.759z
			"/>
		<path fill="#231F20" d="M252.653,33.401c3.26,3.76,4.89,8.85,4.89,15.266c0,4.416-0.815,8.329-2.446,11.744
			c-1.63,3.414-3.938,6.051-6.93,7.912c-2.99,1.86-6.438,2.791-10.338,2.791c-5.981,0-10.626-1.796-13.938-5.39
			c-3.312-3.595-4.968-8.882-4.968-15.864c0-4.414,0.854-8.297,2.563-11.647c1.705-3.35,4.075-5.929,7.103-7.739
			c3.029-1.81,6.508-2.715,10.435-2.715C244.848,27.76,249.393,29.639,252.653,33.401z M229.993,37.905
			c-1.86,2.555-2.79,6.399-2.79,11.532c0,10.242,3.682,15.376,11.05,15.401c3.85,0,6.648-1.315,8.394-3.945
			c1.745-2.632,2.618-6.579,2.618-11.84c0-9.985-3.543-14.978-10.626-14.978C234.734,34.075,231.854,35.351,229.993,37.905z"/>
		<path fill="#231F20" d="M294.299,33.401c3.26,3.76,4.89,8.85,4.89,15.266c0,4.416-0.814,8.329-2.444,11.744
			c-1.63,3.414-3.941,6.051-6.932,7.912s-6.436,2.791-10.337,2.791c-5.981,0-10.628-1.796-13.938-5.39
			c-3.312-3.595-4.966-8.882-4.966-15.864c0-4.414,0.853-8.297,2.559-11.647c1.707-3.35,4.075-5.929,7.104-7.739
			s6.506-2.715,10.435-2.715C286.496,27.76,291.04,29.639,294.299,33.401z M271.64,37.905c-1.86,2.555-2.792,6.399-2.792,11.532
			c0,10.242,3.685,15.376,11.051,15.401c3.85,0,6.648-1.315,8.395-3.945c1.744-2.632,2.617-6.579,2.617-11.84
			c0-9.985-3.542-14.978-10.626-14.978C276.381,34.075,273.501,35.351,271.64,37.905z"/>
		<path fill="#231F20" d="M311.291,12.955c2.528-2.733,6.128-4.099,10.8-4.099c2.207,0,4.196,0.205,5.967,0.616
			c1.772,0.411,3.196,0.853,4.274,1.328c1.078,0.475,1.617,0.738,1.617,0.789v9.856h-5.545l-1.193-6.313
			c-0.204-0.052-0.75-0.129-1.636-0.23c-0.886-0.103-1.905-0.155-3.062-0.155c-2.618,0-4.46,0.674-5.525,2.021
			c-1.064,1.347-1.597,3.305-1.597,5.871v6.315h10.435l-0.27,5.892h-10.165v29.184l7.893,1.965v4.351h-22.486v-4.351l6.701-1.965
			V34.845h-7.087v-5.122l7.087-0.77v-4.736C307.499,19.444,308.761,15.689,311.291,12.955z"/>
		<path fill="#231F20" d="M403.325,64.183l-10.087-15.13l9.857-14.593l6.699-1.194v-4.698l-11.436,0.385l-9.434,14.978
			l-6.083-10.165l2.772-0.5v-4.698l-17.981,0.385v4.313l6.046,1.117l10.126,15.055l-10.661,15.706l-5.853,0.228l-6.263-0.708
			l0.033-24.658c0-4.365-1.237-7.496-3.714-9.395c-2.478-1.899-6.103-2.85-10.878-2.85c-2.001,0-4.133,0.238-6.391,0.712
			c-2.259,0.476-4.217,0.962-5.873,1.463c-1.654,0.5-2.688,0.828-3.099,0.982l0.386,9.857h5.12l1.117-5.929
			c0.153-0.052,0.571-0.167,1.251-0.347c0.68-0.18,1.611-0.36,2.791-0.54c1.181-0.18,2.478-0.27,3.89-0.27
			c2.438,0,4.299,0.603,5.583,1.81c1.283,1.207,1.925,2.965,1.925,5.275v6.313h-6.314c-5.826,0-10.306,0.944-13.438,2.831
			c-3.133,1.886-4.698,5.011-4.698,9.376c0,3.747,1.041,6.654,3.12,8.721c2.078,2.066,4.979,3.099,8.7,3.099
			c2.49,0,4.845-0.624,7.065-1.868s4.179-2.714,5.872-4.408l1.654,5.506h11.693h1.196h10.239l9.779-15.709l6.469,10.434
			l-3.157,0.925v4.351h19.252v-4.351L403.325,64.183z M353.17,58.523c0,0.103-0.552,0.707-1.655,1.81
			c-1.104,1.103-2.439,2.131-4.005,3.08c-1.566,0.951-3.221,1.425-4.967,1.425c-1.797,0-3.209-0.539-4.235-1.617
			c-1.027-1.079-1.54-2.516-1.54-4.313c0-2.362,0.841-4.069,2.521-5.122c1.682-1.051,4.472-1.578,8.375-1.578h5.506V58.523z"/>
	</g>
	
		<text transform="matrix(1 0 0 1 136.6665 70.1138)" display="none" fill="#231F20" font-family="'Kadwa-Regular'" font-size="79" letter-spacing="-3">spoofax</text>
</g>
<g id="Logo">
	<g>
		<path fill="#231F20" d="M30.639,15.478c-1.399,0.499-2.387,1.34-2.964,2.521c-0.577,1.18-0.867,2.848-0.867,5.006V36.48
			c0,2.67-0.616,4.94-1.848,6.814c-1.232,1.875-3.055,3.261-5.468,4.159c2.413,0.898,4.235,2.278,5.468,4.14
			c1.231,1.86,1.848,4.139,1.848,6.833V75.06c0,2.156,0.29,3.825,0.867,5.006c0.577,1.179,1.564,2.021,2.964,2.521
			c1.399,0.502,3.356,0.751,5.873,0.751v5.122h-3.544c-4.774,0-8.2-1.016-10.28-3.042c-2.079-2.029-3.119-5.481-3.119-10.358V58.426
			c0-2.617-0.552-4.639-1.654-6.063c-1.104-1.425-3.055-2.138-5.853-2.138v-5.543c2.798,0,4.749-0.706,5.853-2.119
			c1.103-1.412,1.654-3.439,1.654-6.083V23.005c0-4.878,1.04-8.331,3.119-10.358c2.08-2.027,5.506-3.042,10.28-3.042h3.544v5.122
			C33.996,14.727,32.039,14.976,30.639,15.478z"/>
		<path fill="#892164" d="M54.496,68.286c0.745,0.321,1.759,0.621,3.042,0.904s2.683,0.425,4.198,0.425
			c3.156,0,5.96-0.746,8.412-2.235c2.45-1.488,3.677-3.554,3.677-6.199c0-1.694-0.526-3.112-1.579-4.253
			c-1.053-1.143-2.354-2.074-3.908-2.793c-1.553-0.718-3.69-1.578-6.41-2.58c-3.568-1.257-6.448-2.438-8.644-3.541
			c-2.194-1.105-4.069-2.696-5.622-4.775c-1.554-2.079-2.329-4.749-2.329-8.009c0-5.21,1.777-9.124,5.333-11.742
			c3.555-2.619,8.014-3.928,13.379-3.928c2.208,0,4.544,0.238,7.008,0.712c2.465,0.476,4.567,0.964,6.313,1.464
			c1.746,0.5,2.851,0.828,3.313,0.982l-0.385,13.398h-5.121l-2.696-8.432c-0.204-0.051-0.706-0.199-1.501-0.442
			c-0.794-0.245-1.822-0.468-3.079-0.674c-1.259-0.206-2.518-0.309-3.775-0.309c-3.362,0-5.953,0.751-7.776,2.253
			c-1.822,1.5-2.734,3.305-2.734,5.409c0,1.695,0.526,3.113,1.579,4.254c1.053,1.143,2.367,2.086,3.946,2.831
			c1.579,0.744,3.794,1.617,6.644,2.617c3.412,1.208,6.21,2.349,8.393,3.428c2.181,1.077,4.035,2.598,5.563,4.563
			c1.526,1.962,2.29,4.446,2.29,7.449c0,3.774-0.924,6.963-2.772,9.569c-1.848,2.604-4.33,4.538-7.449,5.794
			c-3.119,1.256-6.577,1.887-10.376,1.887c-2.466,0-4.89-0.232-7.278-0.693c-2.387-0.462-4.369-0.944-5.948-1.444
			c-1.579-0.5-2.585-0.828-3.021-0.982V59.373h6.313l1.579,8.277C53.278,67.753,53.751,67.964,54.496,68.286z"/>
		<path fill="#231F20" d="M102.89,12.628c2.079,2.014,3.119,5.473,3.119,10.377V36.48c0,2.619,0.551,4.641,1.654,6.064
			s3.056,2.137,5.853,2.137v5.543c-2.797,0-4.749,0.707-5.853,2.119c-1.104,1.411-1.654,3.438-1.654,6.082V75.06
			c0,4.876-1.04,8.329-3.119,10.358c-2.079,2.026-5.506,3.042-10.281,3.042h-3.541v-5.122c2.516,0,4.472-0.249,5.871-0.751
			c1.398-0.5,2.387-1.343,2.964-2.521c0.579-1.181,0.867-2.85,0.867-5.006V58.426c0-2.668,0.615-4.94,1.848-6.813
			c1.232-1.874,3.056-3.261,5.468-4.159c-2.412-0.897-4.235-2.278-5.468-4.138c-1.232-1.862-1.848-4.14-1.848-6.834V23.005
			c0-2.158-0.288-3.826-0.867-5.006c-0.577-1.182-1.565-2.023-2.964-2.521c-1.399-0.502-3.355-0.751-5.871-0.751V9.605h3.541
			C97.384,9.605,100.811,10.613,102.89,12.628z"/>
	</g>
</g>
</svg>
