<svg xmlns="http://www.w3.org/2000/svg" viewBox="0 0 796.46 206.54"><defs><style>.cls-1{font-size:48px;font-family:Kadwa-Regular, Kadwa;}.cls-1,.cls-2,.cls-4{fill:#231f20;}.cls-3{fill:#892164;}.cls-4{stroke:#231f20;stroke-miterlimit:10;stroke-width:2px;}</style></defs><title>Spoofax for Eclipse</title><g id="Logo"><text class="cls-1" transform="translate(551.18 177.65)">for Eclipse</text><path class="cls-2" d="M297.75,117.14a57.22,57.22,0,0,0,9.32.65q17.79,0,17.87-12.47a8.37,8.37,0,0,0-4.36-7.66,67.12,67.12,0,0,0-13.51-5.43A108.61,108.61,0,0,1,293.48,87a24.89,24.89,0,0,1-8.9-7.24q-3.69-4.74-3.69-12.28,0-11.85,8.05-18.25t20.82-6.39a66.46,66.46,0,0,1,11.52,1c4,.69,7.37,1.42,10.16,2.19s4.56,1.29,5.28,1.54l-.47,21.26H326l-2.54-12.33-2-.61a31.84,31.84,0,0,0-4.43-.85,48.52,48.52,0,0,0-6.31-.38q-14,0-14,10.55a8.65,8.65,0,0,0,4.51,7.81,68.85,68.85,0,0,0,13.59,5.74q8.16,2.85,13.4,5.28a24,24,0,0,1,8.86,7,18,18,0,0,1,3.62,11.52q0,13.08-9.86,20T306,129.58a88.09,88.09,0,0,1-12-.77c-3.7-.51-6.65-1-8.86-1.54a25.78,25.78,0,0,1-4.08-1.16V102.78h11.09l1.7,13.55A18.72,18.72,0,0,0,297.75,117.14Z" transform="translate(-24.75 -4.37)"/><path class="cls-2" d="M397.14,42.87q16.71,0,25.3,11.05t8.58,30q0,21-10.7,33.31t-31.88,12.36a50.49,50.49,0,0,1-14.17-2.16v25l16.56,3.16v8.7h-45v-8.7l12.62-3.16V57l-13.4-3.16V45.25l26.8-.77,1.31,8.79Q384.37,42.86,397.14,42.87Zm-20.75,72a35.31,35.31,0,0,0,5.54,1.42,46.8,46.8,0,0,0,8.9.73q23.63,0,23.64-31.57,0-13.71-5.12-21.83T394,55.5a22.11,22.11,0,0,0-17.45,7.7c-1.51,1.9-2.27,3-2.27,3.31v47.36A8.6,8.6,0,0,0,376.39,114.87Z" transform="translate(-24.75 -4.37)"/><path class="cls-2" d="M505.31,54.15q9.78,11.28,9.78,30.53a53.91,53.91,0,0,1-4.89,23.49A36.76,36.76,0,0,1,496.34,124a38.36,38.36,0,0,1-20.68,5.59q-17.94,0-27.88-10.78t-9.93-31.73q0-13.25,5.12-23.29A37.22,37.22,0,0,1,457.18,48.3a39.89,39.89,0,0,1,20.87-5.43Q495.53,42.87,505.31,54.15Zm-45.32,9q-5.58,7.66-5.58,23.06,0,30.73,22.1,30.8,11.55,0,16.79-7.89t5.23-23.68q0-30-21.25-29.95Q465.57,55.5,460,63.16Z" transform="translate(-24.75 -4.37)"/><path class="cls-2" d="M588.6,54.15q9.78,11.28,9.78,30.53a53.91,53.91,0,0,1-4.89,23.49A36.76,36.76,0,0,1,579.63,124,38.32,38.32,0,0,1,559,129.58q-18,0-27.88-10.78t-9.93-31.73q0-13.25,5.12-23.29a37.27,37.27,0,0,1,14.2-15.48,39.91,39.91,0,0,1,20.87-5.43Q578.83,42.87,588.6,54.15Zm-45.32,9q-5.58,7.66-5.58,23.06,0,30.73,22.1,30.8,11.55,0,16.79-7.89t5.24-23.68q0-30-21.26-29.95Q548.87,55.5,543.28,63.16Z" transform="translate(-24.75 -4.37)"/><path class="cls-2" d="M622.59,13.26q7.57-8.2,21.59-8.2a53.06,53.06,0,0,1,11.94,1.23A49.57,49.57,0,0,1,664.67,9a17.5,17.5,0,0,1,3.23,1.58V30.24H656.81l-2.38-12.63c-.41-.1-1.5-.26-3.28-.46a52.63,52.63,0,0,0-6.12-.31q-7.86,0-11,4t-3.19,11.74V45.25h20.87L651.12,57H630.79v58.37l15.78,3.93V128h-45v-8.7l13.4-3.93V57H600.83V46.8L615,45.25V35.78Q615,21.47,622.59,13.26Z" transform="translate(-24.75 -4.37)"/><path class="cls-2" d="M806.65,115.71,786.48,85.45l19.71-29.18,13.4-2.39v-9.4l-22.87.77-18.87,30L765.69,54.88l5.54-1v-9.4l-36,.77v8.63l12.09,2.23,20.25,30.11-21.32,31.41-11.7.46-12.53-1.42.07-49.31q0-13.09-7.43-18.79t-21.76-5.7a62.24,62.24,0,0,0-12.78,1.42q-6.76,1.43-11.74,2.93c-3.31,1-5.38,1.66-6.2,2L663,68.9h10.24L675.47,57c.3-.11,1.14-.33,2.5-.69a55.75,55.75,0,0,1,5.58-1.08,51.83,51.83,0,0,1,7.78-.54q7.3,0,11.17,3.62t3.85,10.55V81.52H693.72q-17.49,0-26.88,5.67t-9.4,18.75q0,11.24,6.24,17.44t17.41,6.2a28.48,28.48,0,0,0,14.13-3.74A53.47,53.47,0,0,0,707,117l3.31,11h46.26l19.56-31.42L789,117.49l-6.31,1.85V128h38.5v-8.7Zm-100.3-11.32q0,.31-3.32,3.62a41.26,41.26,0,0,1-8,6.16,18.74,18.74,0,0,1-9.93,2.85c-3.59,0-6.42-1.07-8.47-3.23a12,12,0,0,1-3.08-8.62q0-7.1,5-10.25t16.75-3.15h11Z" transform="translate(-24.75 -4.37)"/><path class="cls-3" d="M106.74,130a39.81,39.81,0,0,0,6.84,2,44.17,44.17,0,0,0,9.43.95,35.66,35.66,0,0,0,18.91-5q8.27-5,8.26-13.93a13.55,13.55,0,0,0-3.55-9.56,27.41,27.41,0,0,0-8.78-6.28q-5.23-2.41-14.41-5.79a171.32,171.32,0,0,1-19.42-8A35.73,35.73,0,0,1,91.38,73.66q-5.23-7-5.23-18,0-17.56,12-26.39t30.07-8.83A84,84,0,0,1,144,22q8.31,1.61,14.19,3.3c3.93,1.12,6.41,1.86,7.45,2.2l-.87,30.12H153.21l-6.06-19c-.46-.11-1.58-.44-3.37-1a53.84,53.84,0,0,0-6.92-1.51,51.73,51.73,0,0,0-8.49-.7q-11.33,0-17.47,5.07t-6.15,12.15a13.54,13.54,0,0,0,3.55,9.56,28.41,28.41,0,0,0,8.87,6.37q5.33,2.5,14.93,5.88A176.11,176.11,0,0,1,151,82.23a35.76,35.76,0,0,1,12.51,10.26q5.15,6.62,5.14,16.74,0,12.72-6.23,21.51a36.92,36.92,0,0,1-16.74,13A62,62,0,0,1,122.32,148,85.82,85.82,0,0,1,106,146.44a124.13,124.13,0,0,1-13.37-3.24c-3.55-1.13-5.81-1.86-6.79-2.21V109.93H100l3.55,18.6C104,128.76,105.07,129.23,106.74,130Z" transform="translate(-24.75 -4.37)"/><path class="cls-4" d="M62.91,17.11A10,10,0,0,0,57,22.16c-1.15,2.36-1.73,5.69-1.73,10V59.12a24.3,24.3,0,0,1-3.7,13.63,21.56,21.56,0,0,1-10.93,8.31,21.73,21.73,0,0,1,10.93,8.28A24.27,24.27,0,0,1,55.25,103v33.27q0,6.47,1.73,10a10,10,0,0,0,5.93,5c2.8,1,6.71,1.5,11.74,1.5v10.25H67.57Q53.25,163.08,47,157t-6.24-20.71V103q0-7.85-3.31-12.13T25.75,86.61V75.52q8.4,0,11.71-4.23t3.31-12.17V32.17q0-14.64,6.24-20.72T67.57,5.37h7.08V15.61Q67.11,15.61,62.91,17.11Z" transform="translate(-24.75 -4.37)"/><path class="cls-4" d="M207.41,11.42q6.24,6,6.24,20.75V59.12q0,7.86,3.31,12.13c2.2,2.85,6.11,4.27,11.7,4.27V86.61c-5.59,0-9.5,1.41-11.7,4.24s-3.31,6.87-3.31,12.16v33.27q0,14.63-6.24,20.71t-20.56,6.09h-7.08V152.83c5,0,8.94-.49,11.74-1.5a10,10,0,0,0,5.93-5q1.73-3.54,1.73-10V103a24.22,24.22,0,0,1,3.7-13.63,21.68,21.68,0,0,1,10.93-8.32,21.66,21.66,0,0,1-10.93-8.27,24.19,24.19,0,0,1-3.7-13.67V32.17c0-4.32-.58-7.65-1.73-10a10,10,0,0,0-5.93-5.05q-4.2-1.5-11.74-1.5V5.37h7.08Q201.18,5.37,207.41,11.42Z" transform="translate(-24.75 -4.37)"/></g></svg>