<svg xmlns="http://www.w3.org/2000/svg" viewBox="0 0 793.9 160.96"><defs><style>.cls-1,.cls-3{fill:#231f20;}.cls-2{fill:#892164;}.cls-3{stroke:#231f20;stroke-miterlimit:10;stroke-width:2px;}</style></defs><title>Spoofax</title><g id="Logo"><path class="cls-1" d="M297.75,129.79a57.12,57.12,0,0,0,9.32.66q17.79,0,17.87-12.48a8.38,8.38,0,0,0-4.36-7.66,67.12,67.12,0,0,0-13.51-5.43,108.61,108.61,0,0,1-13.59-5.2,24.86,24.86,0,0,1-8.9-7.23q-3.69-4.74-3.69-12.29,0-11.85,8.05-18.25t20.82-6.39a67.46,67.46,0,0,1,11.52,1c4,.69,7.37,1.43,10.16,2.19S336,60,336.72,60.3l-.47,21.25H326l-2.54-12.32c-.31-.11-1-.31-2-.62a30.64,30.64,0,0,0-4.43-.84,46.73,46.73,0,0,0-6.31-.39q-14,0-14,10.55a8.67,8.67,0,0,0,4.51,7.82,69.55,69.55,0,0,0,13.59,5.73q8.16,2.85,13.4,5.28a24.14,24.14,0,0,1,8.86,7,18,18,0,0,1,3.62,11.52q0,13.08-9.86,20T306,142.23a88.09,88.09,0,0,1-12-.77c-3.7-.51-6.65-1-8.86-1.54a25.78,25.78,0,0,1-4.08-1.16V115.43h11.09l1.7,13.55A18.72,18.72,0,0,0,297.75,129.79Z" transform="translate(-27.31 -16)"/><path class="cls-1" d="M397.14,55.52q16.71,0,25.3,11t8.58,30q0,21-10.7,33.31t-31.88,12.36a50.49,50.49,0,0,1-14.17-2.16v25l16.56,3.16V177h-45v-8.7l12.62-3.16V69.69l-13.4-3.16V57.91l26.8-.77,1.31,8.78Q384.37,55.53,397.14,55.52Zm-20.75,72a36.25,36.25,0,0,0,5.54,1.43,47.63,47.63,0,0,0,8.9.73q23.63,0,23.64-31.57,0-13.73-5.12-21.84T394,68.15a22,22,0,0,0-10.75,2.43,21.72,21.72,0,0,0-6.7,5.27c-1.51,1.9-2.27,3-2.27,3.31v47.36A8.6,8.6,0,0,0,376.39,127.52Z" transform="translate(-27.31 -16)"/><path class="cls-1" d="M505.31,66.8q9.78,11.28,9.78,30.54a53.86,53.86,0,0,1-4.89,23.48,36.79,36.79,0,0,1-13.86,15.83,38.35,38.35,0,0,1-20.68,5.58q-17.94,0-27.88-10.78t-9.93-31.73q0-13.25,5.12-23.29A37.22,37.22,0,0,1,457.18,61a39.89,39.89,0,0,1,20.87-5.43Q495.53,55.52,505.31,66.8Zm-45.32,9q-5.58,7.66-5.58,23.07,0,30.72,22.1,30.8,11.55,0,16.79-7.89t5.23-23.68q0-30-21.25-30Q465.57,68.15,460,75.81Z" transform="translate(-27.31 -16)"/><path class="cls-1" d="M588.6,66.8q9.78,11.28,9.78,30.54a53.86,53.86,0,0,1-4.89,23.48,36.79,36.79,0,0,1-13.86,15.83A38.32,38.32,0,0,1,559,142.23q-18,0-27.88-10.78t-9.93-31.73q0-13.25,5.12-23.29A37.27,37.27,0,0,1,540.47,61a39.91,39.91,0,0,1,20.87-5.43Q578.83,55.52,588.6,66.8Zm-45.32,9q-5.58,7.66-5.58,23.07,0,30.72,22.1,30.8,11.55,0,16.79-7.89t5.24-23.68q0-30-21.26-30Q548.87,68.15,543.28,75.81Z" transform="translate(-27.31 -16)"/><path class="cls-1" d="M622.59,25.91q7.57-8.2,21.59-8.2a53.06,53.06,0,0,1,11.94,1.23,50.46,50.46,0,0,1,8.55,2.66,18.34,18.34,0,0,1,3.23,1.58V42.89H656.81l-2.38-12.63c-.41-.1-1.5-.25-3.28-.46a54.94,54.94,0,0,0-6.12-.31q-7.86,0-11,4.05t-3.19,11.74V57.91h20.87l-.54,11.78H630.79v58.37L646.57,132v8.7h-45V132l13.4-3.93V69.69H600.83V59.45L615,57.91V48.44Q615,34.12,622.59,25.91Z" transform="translate(-27.31 -16)"/><path class="cls-1" d="M806.65,128.37,786.48,98.11l19.71-29.19,13.4-2.39V57.14l-22.87.77-18.87,30L765.69,67.53l5.54-1V57.14l-36,.77v8.62l12.09,2.24,20.25,30.11-21.32,31.41-11.7.45-12.53-1.41L722.13,80q0-13.1-7.43-18.79t-21.76-5.7A62.28,62.28,0,0,0,680.16,57q-6.76,1.42-11.74,2.92t-6.2,2L663,81.55h10.24l2.24-11.86c.3-.1,1.14-.33,2.5-.69a55.75,55.75,0,0,1,5.58-1.08,51.83,51.83,0,0,1,7.78-.54q7.3,0,11.17,3.62t3.85,10.55V94.18H693.72q-17.49,0-26.88,5.66t-9.4,18.75q0,11.23,6.24,17.44t17.41,6.2a28.48,28.48,0,0,0,14.13-3.74A53.75,53.75,0,0,0,707,129.68l3.31,11h46.26l19.56-31.42L789,130.14,782.71,132v8.7h38.5V132Zm-100.3-11.32q0,.3-3.32,3.62a42.05,42.05,0,0,1-8,6.16,18.83,18.83,0,0,1-9.93,2.85,11.13,11.13,0,0,1-8.47-3.24,12,12,0,0,1-3.08-8.62q0-7.09,5-10.24t16.75-3.16h11Z" transform="translate(-27.31 -16)"/><path class="cls-2" d="M109.3,141.59a38.79,38.79,0,0,0,6.83,2,43.61,43.61,0,0,0,9.44,1,35.65,35.65,0,0,0,18.9-5q8.26-5,8.27-13.93a13.62,13.62,0,0,0-3.55-9.56,27.28,27.28,0,0,0-8.79-6.27q-5.24-2.43-14.4-5.8a172.36,172.36,0,0,1-19.43-8A35.67,35.67,0,0,1,93.94,85.3q-5.25-7-5.24-18,0-17.56,12-26.39t30.07-8.83a83.15,83.15,0,0,1,15.75,1.6c5.54,1.07,10.26,2.17,14.19,3.29s6.4,1.86,7.44,2.21l-.86,30.11H155.77l-6.06-19c-.46-.12-1.59-.45-3.38-1a58.89,58.89,0,0,0-15.4-2.21q-11.34,0-17.48,5.07T107.3,64.36a13.62,13.62,0,0,0,3.55,9.56,28.23,28.23,0,0,0,8.87,6.36q5.32,2.5,14.93,5.88a177,177,0,0,1,18.87,7.71A35.71,35.71,0,0,1,166,104.12q5.14,6.61,5.15,16.74,0,12.74-6.23,21.51a37,37,0,0,1-16.75,13,61.75,61.75,0,0,1-23.32,4.24,86.45,86.45,0,0,1-16.35-1.55,123.28,123.28,0,0,1-13.37-3.25q-5.33-1.68-6.79-2.21V121.56h14.19l3.54,18.6C106.56,140.39,107.62,140.87,109.3,141.59Z" transform="translate(-27.31 -16)"/><path class="cls-3" d="M65.46,28.75a10,10,0,0,0-5.93,5q-1.72,3.54-1.73,10v27a24.22,24.22,0,0,1-3.7,13.63A21.59,21.59,0,0,1,43.17,92.7,21.58,21.58,0,0,1,54.1,101a24.16,24.16,0,0,1,3.7,13.66v33.27q0,6.47,1.73,10A10.05,10.05,0,0,0,65.46,163q4.2,1.5,11.75,1.5v10.24H70.12q-14.33,0-20.56-6.08t-6.24-20.72V114.64q0-7.85-3.31-12.12c-2.2-2.85-6.11-4.28-11.7-4.28V87.16c5.59,0,9.5-1.42,11.7-4.24S43.32,76,43.32,70.75V43.8q0-14.62,6.24-20.71T70.12,17h7.09V27.24Q69.67,27.24,65.46,28.75Z" transform="translate(-27.31 -16)"/><path class="cls-3" d="M210,23.05q6.24,6,6.24,20.75v27q0,7.86,3.31,12.13t11.71,4.28V98.24q-8.4,0-11.71,4.24t-3.31,12.16v33.27q0,14.63-6.24,20.72t-20.56,6.08h-7.08V164.47q7.55,0,11.74-1.5a10,10,0,0,0,5.93-5.05c1.16-2.36,1.73-5.7,1.73-10V114.64a24.18,24.18,0,0,1,3.7-13.62,21.57,21.57,0,0,1,10.93-8.32,21.73,21.73,0,0,1-10.93-8.28,24.17,24.17,0,0,1-3.7-13.67V43.8c0-4.31-.57-7.65-1.73-10a9.94,9.94,0,0,0-5.93-5q-4.2-1.52-11.74-1.51V17h7.08Q203.72,17,210,23.05Z" transform="translate(-27.31 -16)"/></g></svg>