<?xml version="1.0" encoding="utf-8"?>
<!-- Generator: Adobe Illustrator 16.0.0, SVG Export Plug-In . SVG Version: 6.00 Build 0)  -->
<!DOCTYPE svg PUBLIC "-//W3C//DTD SVG 1.1//EN" "http://www.w3.org/Graphics/SVG/1.1/DTD/svg11.dtd">
<svg version="1.1" xmlns="http://www.w3.org/2000/svg" xmlns:xlink="http://www.w3.org/1999/xlink" x="0px" y="0px"
	 width="845.34px" height="194.67px" viewBox="0 0 845.34 194.67" enable-background="new 0 0 845.34 194.67" xml:space="preserve">
<g id="Subname">
</g>
<g id="Name">
</g>
<g id="Logo">
	<g>
		<text transform="matrix(1 0 0 1 576.0562 182.0166)" fill="#231F20" font-family="'Kadwa-Regular'" font-size="48">for Eclipse</text>
		<g>
			<path fill="#231F20" d="M297.753,117.138c2.619,0.438,5.725,0.655,9.318,0.655c11.857,0,17.813-4.155,17.865-12.473
				c0-3.388-1.453-5.942-4.352-7.662c-2.9-1.72-7.406-3.53-13.514-5.43c-5.598-1.798-10.127-3.529-13.594-5.197
				c-3.465-1.667-6.43-4.083-8.895-7.238c-2.463-3.158-3.695-7.25-3.695-12.282c0-7.905,2.684-13.99,8.049-18.25
				c5.361-4.261,12.309-6.393,20.828-6.393c3.697,0,7.535,0.346,11.514,1.039c3.977,0.692,7.367,1.427,10.166,2.195
				c2.797,0.769,4.553,1.284,5.271,1.54l-0.461,21.255h-10.24l-2.543-12.323c-0.309-0.102-0.99-0.307-2.039-0.614
				c-1.053-0.308-2.529-0.589-4.43-0.847c-1.898-0.256-4.004-0.386-6.313-0.386c-9.348,0-14.016,3.518-14.016,10.551
				c0,3.387,1.502,5.991,4.504,7.815c3.004,1.821,7.533,3.735,13.592,5.736c5.441,1.899,9.906,3.657,13.398,5.275
				s6.441,3.953,8.857,7.007c2.412,3.054,3.619,6.891,3.619,11.514c0,8.727-3.285,15.399-9.857,20.02s-14.838,6.931-24.797,6.931
				c-4.313,0-8.314-0.258-12.012-0.769c-3.697-0.513-6.65-1.026-8.857-1.542c-2.207-0.514-3.566-0.896-4.08-1.154v-23.332h11.088
				l1.695,13.553C293.825,116.437,295.134,116.706,297.753,117.138z"/>
			<path fill="#231F20" d="M397.14,42.868c11.141,0,19.574,3.684,25.299,11.05c5.721,7.366,8.584,17.366,8.584,29.993
				c0,13.964-3.566,25.065-10.701,33.305c-7.137,8.239-17.764,12.36-31.881,12.36c-4.52,0-9.24-0.719-14.17-2.157v25.028
				l16.557,3.158v8.7h-44.971v-8.7l12.627-3.158V57.039l-13.398-3.159v-8.625l26.799-0.771l1.311,8.781
				C380.636,46.334,388.62,42.868,397.14,42.868z M376.388,114.867c1.205,0.464,3.053,0.939,5.545,1.427
				c2.49,0.487,5.455,0.73,8.895,0.73c15.758,0,23.641-10.524,23.641-31.57c0-9.142-1.707-16.418-5.121-21.832
				c-3.416-5.418-8.537-8.123-15.361-8.123c-4.211,0-7.793,0.806-10.742,2.424c-2.953,1.615-5.189,3.376-6.699,5.275
				c-1.518,1.899-2.273,3.002-2.273,3.313v47.355C374.476,114.072,375.181,114.406,376.388,114.867z"/>
			<path fill="#231F20" d="M505.31,54.15c6.52,7.52,9.779,17.699,9.779,30.532c0,8.831-1.631,16.658-4.893,23.488
				c-3.26,6.827-7.877,12.103-13.859,15.823c-5.98,3.721-12.875,5.582-20.676,5.582c-11.963,0-21.252-3.593-27.877-10.779
				c-6.623-7.189-9.936-17.764-9.936-31.728c0-8.828,1.709-16.595,5.125-23.294c3.41-6.699,8.15-11.858,14.205-15.478
				c6.059-3.619,13.016-5.43,20.869-5.43C489.701,42.868,498.791,46.627,505.31,54.15z M459.989,63.158
				c-3.721,5.109-5.58,12.798-5.58,23.064c0,20.483,7.363,30.753,22.1,30.802c7.7,0,13.297-2.63,16.788-7.891
				c3.49-5.264,5.236-13.158,5.236-23.68c0-19.971-7.086-29.955-21.252-29.955C469.472,55.499,463.712,58.051,459.989,63.158z"/>
			<path fill="#231F20" d="M588.603,54.15c6.52,7.52,9.779,17.699,9.779,30.532c0,8.831-1.629,16.658-4.889,23.488
				c-3.26,6.827-7.883,12.103-13.863,15.823s-12.871,5.582-20.674,5.582c-11.963,0-21.256-3.593-27.877-10.779
				c-6.623-7.189-9.932-17.764-9.932-31.728c0-8.828,1.705-16.595,5.117-23.294c3.414-6.699,8.15-11.858,14.209-15.478
				s13.012-5.43,20.869-5.43C572.996,42.868,582.083,46.627,588.603,54.15z M543.285,63.158c-3.721,5.109-5.584,12.798-5.584,23.064
				c0,20.483,7.369,30.753,22.102,30.802c7.699,0,13.297-2.63,16.789-7.891c3.488-5.264,5.234-13.158,5.234-23.68
				c0-19.971-7.084-29.955-21.252-29.955C552.767,55.499,547.007,58.051,543.285,63.158z"/>
			<path fill="#231F20" d="M622.585,13.258c5.057-5.467,12.256-8.198,21.6-8.198c4.414,0,8.393,0.409,11.934,1.232
				c3.545,0.821,6.393,1.705,8.549,2.656c2.156,0.949,3.234,1.477,3.234,1.578v19.712h-11.09l-2.387-12.627
				c-0.408-0.104-1.5-0.258-3.271-0.461c-1.771-0.206-3.811-0.311-6.123-0.311c-5.236,0-8.92,1.349-11.051,4.043
				c-2.129,2.694-3.193,6.609-3.193,11.742v12.63h20.869l-0.539,11.784h-20.33v58.367l15.785,3.93v8.701h-44.973v-8.701l13.402-3.93
				V57.039h-14.174V46.795l14.174-1.54v-9.472C615.001,26.236,617.527,18.728,622.585,13.258z"/>
			<path fill="#231F20" d="M806.654,115.714l-20.174-30.26l19.715-29.187l13.398-2.388v-9.396l-22.871,0.771l-18.867,29.956
				l-12.166-20.33l5.545-1.001v-9.396l-35.963,0.771v8.625l12.092,2.233l20.252,30.109l-21.322,31.411l-11.705,0.455l-12.525-1.415
				l0.066-49.316c0-8.729-2.475-14.991-7.428-18.79c-4.955-3.799-12.205-5.699-21.756-5.699c-4.002,0-8.266,0.476-12.781,1.425
				c-4.518,0.951-8.434,1.925-11.746,2.926c-3.309,1.001-5.377,1.656-6.197,1.964l0.771,19.715h10.24l2.234-11.858
				c0.307-0.104,1.143-0.334,2.502-0.693c1.359-0.36,3.223-0.72,5.582-1.079c2.361-0.359,4.955-0.539,7.779-0.539
				c4.875,0,8.598,1.206,11.166,3.619c2.566,2.413,3.85,5.931,3.85,10.551v12.627h-12.629c-11.652,0-20.611,1.888-26.875,5.661
				c-6.266,3.772-9.396,10.022-9.396,18.752c0,7.494,2.082,13.309,6.24,17.441c4.156,4.133,9.959,6.197,17.4,6.197
				c4.98,0,9.689-1.247,14.131-3.735s8.357-5.429,11.744-8.816l3.309,11.013h23.387h2.393h20.479l19.559-31.418l12.938,20.867
				l-6.314,1.85v8.701h38.504v-8.701L806.654,115.714z M706.345,104.395c0,0.206-1.104,1.413-3.311,3.62
				c-2.207,2.206-4.879,4.263-8.01,6.159c-3.133,1.902-6.441,2.851-9.934,2.851c-3.594,0-6.418-1.078-8.471-3.233
				c-2.055-2.157-3.08-5.031-3.08-8.625c0-4.724,1.682-8.138,5.043-10.243c3.363-2.103,8.943-3.155,16.75-3.155h11.012V104.395z"/>
		</g>
		<g>
			<path fill="#231F20" d="M61.282,18.305c-2.799,0.997-4.773,2.68-5.928,5.043c-1.154,2.36-1.734,5.696-1.734,10.012v26.95
				c0,5.34-1.232,9.881-3.695,13.628c-2.465,3.75-6.109,6.522-10.936,8.317c4.826,1.796,8.471,4.557,10.936,8.28
				c2.463,3.721,3.695,8.277,3.695,13.665v33.268c0,4.313,0.58,7.65,1.734,10.012c1.154,2.357,3.129,4.042,5.928,5.043
				c2.799,1.004,6.713,1.502,11.746,1.502v10.243H65.94c-9.549,0-16.4-2.032-20.561-6.084c-4.158-4.058-6.238-10.963-6.238-20.716
				V104.2c0-5.234-1.104-9.277-3.309-12.125c-2.207-2.851-6.109-4.275-11.705-4.275V76.713c5.596,0,9.498-1.412,11.705-4.237
				c2.205-2.824,3.309-6.879,3.309-12.166v-26.95c0-9.757,2.08-16.661,6.238-20.716c4.16-4.055,11.012-6.085,20.561-6.085h7.088
				v10.243C67.995,16.802,64.081,17.301,61.282,18.305z"/>
			<path fill="#892164" d="M108.995,123.921c1.49,0.642,3.518,1.242,6.084,1.808s5.365,0.85,8.396,0.85
				c6.313,0,11.92-1.491,16.824-4.47c4.9-2.976,7.354-7.107,7.354-12.397c0-3.388-1.053-6.224-3.158-8.506
				c-2.105-2.286-4.709-4.147-7.816-5.586c-3.105-1.436-7.381-3.155-12.82-5.159c-7.137-2.515-12.896-4.875-17.287-7.082
				c-4.389-2.21-8.139-5.392-11.244-9.551c-3.107-4.158-4.658-9.498-4.658-16.018c0-10.42,3.555-18.247,10.666-23.484
				c7.109-5.238,16.027-7.856,26.758-7.856c4.416,0,9.088,0.476,14.016,1.424c4.93,0.951,9.135,1.929,12.627,2.929
				c3.492,1.001,5.701,1.656,6.625,1.964l-0.77,26.797h-10.242l-5.393-16.864c-0.408-0.102-1.412-0.397-3.002-0.885
				c-1.588-0.49-3.645-0.937-6.158-1.349c-2.518-0.411-5.035-0.617-7.551-0.617c-6.725,0-11.906,1.502-15.553,4.507
				c-3.645,3.001-5.469,6.609-5.469,10.817c0,3.39,1.053,6.227,3.158,8.509c2.105,2.285,4.734,4.173,7.893,5.661
				c3.158,1.487,7.588,3.233,13.287,5.234c6.824,2.416,12.42,4.698,16.785,6.856c4.361,2.154,8.07,5.196,11.127,9.126
				c3.053,3.925,4.58,8.893,4.58,14.898c0,7.549-1.848,13.927-5.545,19.138c-3.695,5.209-8.66,9.075-14.898,11.589
				c-6.238,2.512-13.154,3.773-20.752,3.773c-4.932,0-9.779-0.464-14.557-1.387c-4.773-0.925-8.738-1.888-11.896-2.888
				c-3.158-1.001-5.17-1.656-6.043-1.964v-27.644h12.627l3.158,16.554C106.56,122.854,107.507,123.277,108.995,123.921z"/>
			<path fill="#231F20" d="M205.784,12.605c4.158,4.028,6.238,10.945,6.238,20.754v26.95c0,5.238,1.102,9.281,3.309,12.129
				s6.111,4.274,11.705,4.274V87.8c-5.594,0-9.498,1.413-11.705,4.237c-2.207,2.822-3.309,6.876-3.309,12.163v33.268
				c0,9.753-2.08,16.658-6.238,20.716c-4.158,4.052-11.012,6.084-20.563,6.084h-7.082v-10.243c5.031,0,8.943-0.498,11.742-1.502
				c2.797-1.001,4.773-2.686,5.928-5.043c1.158-2.361,1.734-5.699,1.734-10.012V104.2c0-5.336,1.23-9.881,3.695-13.627
				c2.465-3.747,6.111-6.522,10.936-8.318c-4.824-1.795-8.471-4.556-10.936-8.276c-2.465-3.724-3.695-8.28-3.695-13.669v-26.95
				c0-4.315-0.576-7.651-1.734-10.012c-1.154-2.363-3.131-4.046-5.928-5.043c-2.799-1.004-6.711-1.503-11.742-1.503V6.559h7.082
				C194.772,6.559,201.626,8.574,205.784,12.605z"/>
		</g>
	</g>
</g>
</svg>
